<svg width="85" height="85" viewBox="0 0 85 85" fill="none" xmlns="http://www.w3.org/2000/svg">
<rect width="85" height="85" fill="#063F1E"/>
<path d="M56.4692 52.7788C54.5649 54.6831 52.5549 55.9844 50.439 56.6826C48.3442 57.3809 46.0697 57.73 43.6152 57.73C41.1396 57.73 38.8862 57.3597 36.855 56.6191C34.8449 55.8786 33.131 54.8418 31.7134 53.5088C30.3169 52.1546 29.2378 50.5254 28.4761 48.6211C27.7355 46.7168 27.3652 44.5903 27.3652 42.2417C27.3652 39.9989 27.7355 37.9253 28.4761 36.021C29.2378 34.0955 30.2534 32.4557 31.5229 31.1016C32.8136 29.7262 34.3265 28.6577 36.0615 27.896C37.7965 27.1131 39.6374 26.7217 41.584 26.7217C43.6152 26.7217 45.382 27.1449 46.8843 27.9912C48.3866 28.8376 49.4762 30.0754 50.1533 31.7046V27.4199H56.0249V41.1943H50.1533C50.1533 38.5918 49.4339 36.5182 47.9951 34.9736C46.5775 33.4079 44.7261 32.625 42.4409 32.625C41.5311 32.625 40.5684 32.8154 39.5527 33.1963C38.5583 33.556 37.6379 34.1273 36.7915 34.9102C35.9663 35.693 35.2786 36.6875 34.7285 37.8936C34.1784 39.0996 33.9033 40.549 33.9033 42.2417C33.9033 43.8921 34.1678 45.3203 34.6968 46.5264C35.2257 47.7113 35.9134 48.6951 36.7598 49.478C37.6273 50.2397 38.6429 50.8216 39.8066 51.2236C40.9915 51.6045 42.2082 51.7949 43.4565 51.7949C45.5936 51.7949 47.445 51.467 49.0107 50.811C50.5977 50.134 51.9624 49.2453 53.105 48.145L56.4692 52.7788Z" fill="white"/>
</svg>
