<svg width="16" height="16" viewBox="0 0 16 16" fill="none" xmlns="http://www.w3.org/2000/svg">
<mask id="path-1-inside-1_872_118" fill="white">
<path d="M0.124758 1.98241V9.75093C0.124758 10.8584 1.02142 11.7333 2.1208 11.7333H8.02069L13.0916 16H13.9538V11.7333H14.004C15.1033 11.7333 16 10.8301 16 9.75093V1.98241C16 0.874961 15.1033 0 14.004 0H2.12142C0.994907 0 0.124758 0.903236 0.124758 1.98241Z"/>
</mask>
<path d="M11.2433 3.36364C11.7955 3.36364 12.2433 3.81135 12.2433 4.36364C12.2433 4.91592 11.7955 5.36364 11.2433 5.36364V3.36364ZM4.36042 5.36364C3.80813 5.36364 3.36042 4.91592 3.36042 4.36364C3.36042 3.81135 3.80813 3.36364 4.36042 3.36364V5.36364ZM7.53712 6.27273C8.0894 6.27273 8.53712 6.72044 8.53712 7.27273C8.53712 7.82501 8.0894 8.27273 7.53712 8.27273V6.27273ZM4.36042 8.27273C3.80813 8.27273 3.36042 7.82501 3.36042 7.27273C3.36042 6.72044 3.80813 6.27273 4.36042 6.27273V8.27273ZM11.2433 5.36364C11.238 5.36364 11.2328 5.36364 11.2275 5.36364C11.2223 5.36364 11.2171 5.36364 11.2118 5.36364C11.2066 5.36364 11.2014 5.36364 11.1961 5.36364C11.1909 5.36364 11.1857 5.36364 11.1805 5.36364C11.1753 5.36364 11.1701 5.36364 11.1649 5.36364C11.1596 5.36364 11.1544 5.36364 11.1493 5.36364C11.1441 5.36364 11.1389 5.36364 11.1337 5.36364C11.1285 5.36364 11.1233 5.36364 11.1181 5.36364C11.1129 5.36364 11.1078 5.36364 11.1026 5.36364C11.0974 5.36364 11.0923 5.36364 11.0871 5.36364C11.0819 5.36364 11.0768 5.36364 11.0716 5.36364C11.0665 5.36364 11.0613 5.36364 11.0562 5.36364C11.051 5.36364 11.0459 5.36364 11.0408 5.36364C11.0356 5.36364 11.0305 5.36364 11.0254 5.36364C11.0202 5.36364 11.0151 5.36364 11.01 5.36364C11.0049 5.36364 10.9998 5.36364 10.9947 5.36364C10.9895 5.36364 10.9844 5.36364 10.9793 5.36364C10.9742 5.36364 10.9691 5.36364 10.964 5.36364C10.959 5.36364 10.9539 5.36364 10.9488 5.36364C10.9437 5.36364 10.9386 5.36364 10.9335 5.36364C10.9285 5.36364 10.9234 5.36364 10.9183 5.36364C10.9133 5.36364 10.9082 5.36364 10.9031 5.36364C10.8981 5.36364 10.893 5.36364 10.888 5.36364C10.8829 5.36364 10.8779 5.36364 10.8728 5.36364C10.8678 5.36364 10.8627 5.36364 10.8577 5.36364C10.8527 5.36364 10.8476 5.36364 10.8426 5.36364C10.8376 5.36364 10.8326 5.36364 10.8275 5.36364C10.8225 5.36364 10.8175 5.36364 10.8125 5.36364C10.8075 5.36364 10.8025 5.36364 10.7975 5.36364C10.7925 5.36364 10.7875 5.36364 10.7825 5.36364C10.7775 5.36364 10.7725 5.36364 10.7675 5.36364C10.7625 5.36364 10.7575 5.36364 10.7525 5.36364C10.7476 5.36364 10.7426 5.36364 10.7376 5.36364C10.7326 5.36364 10.7277 5.36364 10.7227 5.36364C10.7177 5.36364 10.7128 5.36364 10.7078 5.36364C10.7029 5.36364 10.6979 5.36364 10.693 5.36364C10.688 5.36364 10.6831 5.36364 10.6781 5.36364C10.6732 5.36364 10.6683 5.36364 10.6633 5.36364C10.6584 5.36364 10.6535 5.36364 10.6485 5.36364C10.6436 5.36364 10.6387 5.36364 10.6338 5.36364C10.6289 5.36364 10.6239 5.36364 10.619 5.36364C10.6141 5.36364 10.6092 5.36364 10.6043 5.36364C10.5994 5.36364 10.5945 5.36364 10.5896 5.36364C10.5847 5.36364 10.5798 5.36364 10.575 5.36364C10.5701 5.36364 10.5652 5.36364 10.5603 5.36364C10.5554 5.36364 10.5505 5.36364 10.5457 5.36364C10.5408 5.36364 10.5359 5.36364 10.5311 5.36364C10.5262 5.36364 10.5213 5.36364 10.5165 5.36364C10.5116 5.36364 10.5068 5.36364 10.5019 5.36364C10.4971 5.36364 10.4922 5.36364 10.4874 5.36364C10.4825 5.36364 10.4777 5.36364 10.4729 5.36364C10.468 5.36364 10.4632 5.36364 10.4584 5.36364C10.4535 5.36364 10.4487 5.36364 10.4439 5.36364C10.4391 5.36364 10.4342 5.36364 10.4294 5.36364C10.4246 5.36364 10.4198 5.36364 10.415 5.36364C10.4102 5.36364 10.4054 5.36364 10.4006 5.36364C10.3958 5.36364 10.391 5.36364 10.3862 5.36364C10.3814 5.36364 10.3766 5.36364 10.3718 5.36364C10.367 5.36364 10.3623 5.36364 10.3575 5.36364C10.3527 5.36364 10.3479 5.36364 10.3431 5.36364C10.3384 5.36364 10.3336 5.36364 10.3288 5.36364C10.3241 5.36364 10.3193 5.36364 10.3145 5.36364C10.3098 5.36364 10.305 5.36364 10.3003 5.36364C10.2955 5.36364 10.2908 5.36364 10.286 5.36364C10.2813 5.36364 10.2765 5.36364 10.2718 5.36364C10.2671 5.36364 10.2623 5.36364 10.2576 5.36364C10.2529 5.36364 10.2481 5.36364 10.2434 5.36364C10.2387 5.36364 10.234 5.36364 10.2293 5.36364C10.2245 5.36364 10.2198 5.36364 10.2151 5.36364C10.2104 5.36364 10.2057 5.36364 10.201 5.36364C10.1963 5.36364 10.1916 5.36364 10.1869 5.36364C10.1822 5.36364 10.1775 5.36364 10.1728 5.36364C10.1681 5.36364 10.1634 5.36364 10.1587 5.36364C10.154 5.36364 10.1494 5.36364 10.1447 5.36364C10.14 5.36364 10.1353 5.36364 10.1306 5.36364C10.126 5.36364 10.1213 5.36364 10.1166 5.36364C10.112 5.36364 10.1073 5.36364 10.1026 5.36364C10.098 5.36364 10.0933 5.36364 10.0887 5.36364C10.084 5.36364 10.0794 5.36364 10.0747 5.36364C10.0701 5.36364 10.0654 5.36364 10.0608 5.36364C10.0561 5.36364 10.0515 5.36364 10.0469 5.36364C10.0422 5.36364 10.0376 5.36364 10.033 5.36364C10.0283 5.36364 10.0237 5.36364 10.0191 5.36364C10.0145 5.36364 10.0098 5.36364 10.0052 5.36364C10.0006 5.36364 9.996 5.36364 9.99139 5.36364C9.98678 5.36364 9.98217 5.36364 9.97757 5.36364C9.97296 5.36364 9.96836 5.36364 9.96376 5.36364C9.95916 5.36364 9.95456 5.36364 9.94997 5.36364C9.94538 5.36364 9.94079 5.36364 9.9362 5.36364C9.93161 5.36364 9.92703 5.36364 9.92245 5.36364C9.91786 5.36364 9.91329 5.36364 9.90871 5.36364C9.90413 5.36364 9.89956 5.36364 9.89499 5.36364C9.89042 5.36364 9.88585 5.36364 9.88129 5.36364C9.87673 5.36364 9.87217 5.36364 9.86761 5.36364C9.86305 5.36364 9.85849 5.36364 9.85394 5.36364C9.84939 5.36364 9.84484 5.36364 9.84029 5.36364C9.83574 5.36364 9.8312 5.36364 9.82666 5.36364C9.82212 5.36364 9.81758 5.36364 9.81304 5.36364C9.80851 5.36364 9.80397 5.36364 9.79944 5.36364C9.79491 5.36364 9.79038 5.36364 9.78586 5.36364C9.78133 5.36364 9.77681 5.36364 9.77229 5.36364C9.76777 5.36364 9.76326 5.36364 9.75874 5.36364C9.75423 5.36364 9.74972 5.36364 9.74521 5.36364C9.7407 5.36364 9.7362 5.36364 9.73169 5.36364C9.72719 5.36364 9.72269 5.36364 9.71819 5.36364C9.71369 5.36364 9.7092 5.36364 9.7047 5.36364C9.70021 5.36364 9.69572 5.36364 9.69124 5.36364C9.68675 5.36364 9.68226 5.36364 9.67778 5.36364C9.6733 5.36364 9.66882 5.36364 9.66434 5.36364C9.65987 5.36364 9.65539 5.36364 9.65092 5.36364C9.64645 5.36364 9.64198 5.36364 9.63751 5.36364C9.63305 5.36364 9.62858 5.36364 9.62412 5.36364C9.61966 5.36364 9.6152 5.36364 9.61074 5.36364C9.60629 5.36364 9.60183 5.36364 9.59738 5.36364C9.59293 5.36364 9.58848 5.36364 9.58403 5.36364C9.57959 5.36364 9.57514 5.36364 9.5707 5.36364C9.56626 5.36364 9.56182 5.36364 9.55739 5.36364C9.55295 5.36364 9.54851 5.36364 9.54408 5.36364C9.53965 5.36364 9.53522 5.36364 9.5308 5.36364C9.52637 5.36364 9.52194 5.36364 9.51752 5.36364C9.5131 5.36364 9.50868 5.36364 9.50426 5.36364C9.49985 5.36364 9.49543 5.36364 9.49102 5.36364C9.48661 5.36364 9.48219 5.36364 9.47779 5.36364C9.47338 5.36364 9.46897 5.36364 9.46457 5.36364C9.46017 5.36364 9.45577 5.36364 9.45137 5.36364C9.44697 5.36364 9.44257 5.36364 9.43818 5.36364C9.43378 5.36364 9.42939 5.36364 9.425 5.36364C9.42061 5.36364 9.41623 5.36364 9.41184 5.36364C9.40746 5.36364 9.40307 5.36364 9.39869 5.36364C9.39431 5.36364 9.38994 5.36364 9.38556 5.36364C9.38118 5.36364 9.37681 5.36364 9.37244 5.36364C9.36807 5.36364 9.3637 5.36364 9.35933 5.36364C9.35496 5.36364 9.3506 5.36364 9.34624 5.36364C9.34187 5.36364 9.33751 5.36364 9.33315 5.36364C9.32879 5.36364 9.32444 5.36364 9.32008 5.36364C9.31573 5.36364 9.31138 5.36364 9.30703 5.36364C9.30268 5.36364 9.29833 5.36364 9.29398 5.36364C9.28964 5.36364 9.28529 5.36364 9.28095 5.36364C9.27661 5.36364 9.27227 5.36364 9.26793 5.36364C9.2636 5.36364 9.25926 5.36364 9.25493 5.36364C9.25059 5.36364 9.24626 5.36364 9.24193 5.36364C9.2376 5.36364 9.23328 5.36364 9.22895 5.36364C9.22463 5.36364 9.2203 5.36364 9.21598 5.36364C9.21166 5.36364 9.20734 5.36364 9.20302 5.36364C9.19871 5.36364 9.19439 5.36364 9.19008 5.36364C9.18576 5.36364 9.18145 5.36364 9.17714 5.36364C9.17283 5.36364 9.16853 5.36364 9.16422 5.36364C9.15991 5.36364 9.15561 5.36364 9.15131 5.36364C9.14701 5.36364 9.14271 5.36364 9.13841 5.36364C9.13411 5.36364 9.12982 5.36364 9.12552 5.36364C9.12123 5.36364 9.11693 5.36364 9.11264 5.36364C9.10835 5.36364 9.10406 5.36364 9.09978 5.36364C9.09549 5.36364 9.09121 5.36364 9.08692 5.36364C9.08264 5.36364 9.07836 5.36364 9.07408 5.36364C9.0698 5.36364 9.06552 5.36364 9.06124 5.36364C9.05697 5.36364 9.05269 5.36364 9.04842 5.36364C9.04415 5.36364 9.03988 5.36364 9.03561 5.36364C9.03134 5.36364 9.02707 5.36364 9.02281 5.36364C9.01854 5.36364 9.01428 5.36364 9.01001 5.36364C9.00575 5.36364 9.00149 5.36364 8.99723 5.36364C8.99297 5.36364 8.98872 5.36364 8.98446 5.36364C8.98021 5.36364 8.97595 5.36364 8.9717 5.36364C8.96745 5.36364 8.9632 5.36364 8.95895 5.36364C8.9547 5.36364 8.95045 5.36364 8.94621 5.36364C8.94196 5.36364 8.93772 5.36364 8.93348 5.36364C8.92923 5.36364 8.92499 5.36364 8.92075 5.36364C8.91651 5.36364 8.91228 5.36364 8.90804 5.36364C8.9038 5.36364 8.89957 5.36364 8.89534 5.36364C8.8911 5.36364 8.88687 5.36364 8.88264 5.36364C8.87841 5.36364 8.87419 5.36364 8.86996 5.36364C8.86573 5.36364 8.86151 5.36364 8.85728 5.36364C8.85306 5.36364 8.84884 5.36364 8.84462 5.36364C8.8404 5.36364 8.83618 5.36364 8.83196 5.36364C8.82774 5.36364 8.82352 5.36364 8.81931 5.36364C8.81509 5.36364 8.81088 5.36364 8.80667 5.36364C8.80246 5.36364 8.79825 5.36364 8.79404 5.36364C8.78983 5.36364 8.78562 5.36364 8.78141 5.36364C8.77721 5.36364 8.773 5.36364 8.7688 5.36364C8.76459 5.36364 8.76039 5.36364 8.75619 5.36364C8.75199 5.36364 8.74779 5.36364 8.74359 5.36364C8.73939 5.36364 8.7352 5.36364 8.731 5.36364C8.72681 5.36364 8.72261 5.36364 8.71842 5.36364C8.71423 5.36364 8.71003 5.36364 8.70584 5.36364C8.70165 5.36364 8.69746 5.36364 8.69328 5.36364C8.68909 5.36364 8.6849 5.36364 8.68072 5.36364C8.67653 5.36364 8.67235 5.36364 8.66816 5.36364C8.66398 5.36364 8.6598 5.36364 8.65562 5.36364C8.65144 5.36364 8.64726 5.36364 8.64308 5.36364C8.6389 5.36364 8.63473 5.36364 8.63055 5.36364C8.62638 5.36364 8.6222 5.36364 8.61803 5.36364C8.61386 5.36364 8.60968 5.36364 8.60551 5.36364C8.60134 5.36364 8.59717 5.36364 8.593 5.36364C8.58883 5.36364 8.58467 5.36364 8.5805 5.36364C8.57633 5.36364 8.57217 5.36364 8.568 5.36364C8.56384 5.36364 8.55968 5.36364 8.55551 5.36364C8.55135 5.36364 8.54719 5.36364 8.54303 5.36364C8.53887 5.36364 8.53471 5.36364 8.53055 5.36364C8.5264 5.36364 8.52224 5.36364 8.51808 5.36364C8.51393 5.36364 8.50977 5.36364 8.50562 5.36364C8.50147 5.36364 8.49731 5.36364 8.49316 5.36364C8.48901 5.36364 8.48486 5.36364 8.48071 5.36364C8.47656 5.36364 8.47241 5.36364 8.46826 5.36364C8.46411 5.36364 8.45997 5.36364 8.45582 5.36364C8.45168 5.36364 8.44753 5.36364 8.44339 5.36364C8.43924 5.36364 8.4351 5.36364 8.43096 5.36364C8.42681 5.36364 8.42267 5.36364 8.41853 5.36364C8.41439 5.36364 8.41025 5.36364 8.40611 5.36364C8.40197 5.36364 8.39784 5.36364 8.3937 5.36364C8.38956 5.36364 8.38543 5.36364 8.38129 5.36364C8.37715 5.36364 8.37302 5.36364 8.36889 5.36364C8.36475 5.36364 8.36062 5.36364 8.35649 5.36364C8.35235 5.36364 8.34822 5.36364 8.34409 5.36364C8.33996 5.36364 8.33583 5.36364 8.3317 5.36364C8.32757 5.36364 8.32344 5.36364 8.31932 5.36364C8.31519 5.36364 8.31106 5.36364 8.30694 5.36364C8.30281 5.36364 8.29868 5.36364 8.29456 5.36364C8.29044 5.36364 8.28631 5.36364 8.28219 5.36364C8.27806 5.36364 8.27394 5.36364 8.26982 5.36364C8.2657 5.36364 8.26158 5.36364 8.25746 5.36364C8.25333 5.36364 8.24921 5.36364 8.2451 5.36364C8.24098 5.36364 8.23686 5.36364 8.23274 5.36364C8.22862 5.36364 8.2245 5.36364 8.22039 5.36364C8.21627 5.36364 8.21215 5.36364 8.20804 5.36364C8.20392 5.36364 8.19981 5.36364 8.19569 5.36364C8.19158 5.36364 8.18746 5.36364 8.18335 5.36364C8.17924 5.36364 8.17512 5.36364 8.17101 5.36364C8.1669 5.36364 8.16279 5.36364 8.15867 5.36364C8.15456 5.36364 8.15045 5.36364 8.14634 5.36364C8.14223 5.36364 8.13812 5.36364 8.13401 5.36364C8.1299 5.36364 8.12579 5.36364 8.12169 5.36364C8.11758 5.36364 8.11347 5.36364 8.10936 5.36364C8.10525 5.36364 8.10115 5.36364 8.09704 5.36364C8.09293 5.36364 8.08883 5.36364 8.08472 5.36364C8.08062 5.36364 8.07651 5.36364 8.0724 5.36364C8.0683 5.36364 8.06419 5.36364 8.06009 5.36364C8.05599 5.36364 8.05188 5.36364 8.04778 5.36364C8.04367 5.36364 8.03957 5.36364 8.03547 5.36364C8.03136 5.36364 8.02726 5.36364 8.02316 5.36364C8.01906 5.36364 8.01496 5.36364 8.01085 5.36364C8.00675 5.36364 8.00265 5.36364 7.99855 5.36364C7.99445 5.36364 7.99035 5.36364 7.98625 5.36364C7.98215 5.36364 7.97805 5.36364 7.97395 5.36364C7.96985 5.36364 7.96575 5.36364 7.96165 5.36364C7.95755 5.36364 7.95345 5.36364 7.94935 5.36364C7.94525 5.36364 7.94115 5.36364 7.93705 5.36364C7.93295 5.36364 7.92885 5.36364 7.92476 5.36364C7.92066 5.36364 7.91656 5.36364 7.91246 5.36364C7.90836 5.36364 7.90427 5.36364 7.90017 5.36364C7.89607 5.36364 7.89197 5.36364 7.88788 5.36364C7.88378 5.36364 7.87968 5.36364 7.87558 5.36364C7.87149 5.36364 7.86739 5.36364 7.86329 5.36364C7.85919 5.36364 7.8551 5.36364 7.851 5.36364C7.8469 5.36364 7.84281 5.36364 7.83871 5.36364C7.83461 5.36364 7.83052 5.36364 7.82642 5.36364C7.82232 5.36364 7.81823 5.36364 7.81413 5.36364C7.81003 5.36364 7.80594 5.36364 7.80184 5.36364C7.79774 5.36364 7.79365 5.36364 7.78955 5.36364C7.78545 5.36364 7.78136 5.36364 7.77726 5.36364C7.77316 5.36364 7.76907 5.36364 7.76497 5.36364C7.76087 5.36364 7.75678 5.36364 7.75268 5.36364C7.74858 5.36364 7.74449 5.36364 7.74039 5.36364C7.73629 5.36364 7.73219 5.36364 7.7281 5.36364C7.724 5.36364 7.7199 5.36364 7.71581 5.36364C7.71171 5.36364 7.70761 5.36364 7.70351 5.36364C7.69942 5.36364 7.69532 5.36364 7.69122 5.36364C7.68712 5.36364 7.68302 5.36364 7.67892 5.36364C7.67483 5.36364 7.67073 5.36364 7.66663 5.36364C7.66253 5.36364 7.65843 5.36364 7.65433 5.36364C7.65023 5.36364 7.64613 5.36364 7.64203 5.36364C7.63793 5.36364 7.63383 5.36364 7.62973 5.36364C7.62563 5.36364 7.62153 5.36364 7.61743 5.36364C7.61333 5.36364 7.60923 5.36364 7.60513 5.36364C7.60103 5.36364 7.59693 5.36364 7.59283 5.36364C7.58873 5.36364 7.58462 5.36364 7.58052 5.36364C7.57642 5.36364 7.57232 5.36364 7.56821 5.36364C7.56411 5.36364 7.56001 5.36364 7.5559 5.36364C7.5518 5.36364 7.5477 5.36364 7.54359 5.36364C7.53949 5.36364 7.53538 5.36364 7.53128 5.36364C7.52717 5.36364 7.52307 5.36364 7.51896 5.36364C7.51485 5.36364 7.51075 5.36364 7.50664 5.36364C7.50253 5.36364 7.49843 5.36364 7.49432 5.36364C7.49021 5.36364 7.4861 5.36364 7.482 5.36364C7.47789 5.36364 7.47378 5.36364 7.46967 5.36364C7.46556 5.36364 7.46145 5.36364 7.45734 5.36364C7.45323 5.36364 7.44912 5.36364 7.44501 5.36364C7.4409 5.36364 7.43678 5.36364 7.43267 5.36364C7.42856 5.36364 7.42445 5.36364 7.42033 5.36364C7.41622 5.36364 7.4121 5.36364 7.40799 5.36364C7.40387 5.36364 7.39976 5.36364 7.39564 5.36364C7.39153 5.36364 7.38741 5.36364 7.3833 5.36364C7.37918 5.36364 7.37506 5.36364 7.37094 5.36364C7.36682 5.36364 7.36271 5.36364 7.35859 5.36364C7.35447 5.36364 7.35035 5.36364 7.34623 5.36364C7.3421 5.36364 7.33798 5.36364 7.33386 5.36364C7.32974 5.36364 7.32562 5.36364 7.32149 5.36364C7.31737 5.36364 7.31325 5.36364 7.30912 5.36364C7.305 5.36364 7.30087 5.36364 7.29674 5.36364C7.29262 5.36364 7.28849 5.36364 7.28436 5.36364C7.28024 5.36364 7.27611 5.36364 7.27198 5.36364C7.26785 5.36364 7.26372 5.36364 7.25959 5.36364C7.25546 5.36364 7.25133 5.36364 7.24719 5.36364C7.24306 5.36364 7.23893 5.36364 7.2348 5.36364C7.23066 5.36364 7.22653 5.36364 7.22239 5.36364C7.21826 5.36364 7.21412 5.36364 7.20998 5.36364C7.20585 5.36364 7.20171 5.36364 7.19757 5.36364C7.19343 5.36364 7.18929 5.36364 7.18515 5.36364C7.18101 5.36364 7.17687 5.36364 7.17272 5.36364C7.16858 5.36364 7.16444 5.36364 7.1603 5.36364C7.15615 5.36364 7.15201 5.36364 7.14786 5.36364C7.14371 5.36364 7.13957 5.36364 7.13542 5.36364C7.13127 5.36364 7.12712 5.36364 7.12297 5.36364C7.11882 5.36364 7.11467 5.36364 7.11052 5.36364C7.10637 5.36364 7.10221 5.36364 7.09806 5.36364C7.09391 5.36364 7.08975 5.36364 7.0856 5.36364C7.08144 5.36364 7.07728 5.36364 7.07313 5.36364C7.06897 5.36364 7.06481 5.36364 7.06065 5.36364C7.05649 5.36364 7.05233 5.36364 7.04817 5.36364C7.044 5.36364 7.03984 5.36364 7.03568 5.36364C7.03151 5.36364 7.02735 5.36364 7.02318 5.36364C7.01901 5.36364 7.01485 5.36364 7.01068 5.36364C7.00651 5.36364 7.00234 5.36364 6.99817 5.36364C6.994 5.36364 6.98983 5.36364 6.98565 5.36364C6.98148 5.36364 6.97731 5.36364 6.97313 5.36364C6.96895 5.36364 6.96478 5.36364 6.9606 5.36364C6.95642 5.36364 6.95224 5.36364 6.94806 5.36364C6.94388 5.36364 6.9397 5.36364 6.93552 5.36364C6.93133 5.36364 6.92715 5.36364 6.92296 5.36364C6.91878 5.36364 6.91459 5.36364 6.91041 5.36364C6.90622 5.36364 6.90203 5.36364 6.89784 5.36364C6.89365 5.36364 6.88946 5.36364 6.88526 5.36364C6.88107 5.36364 6.87687 5.36364 6.87268 5.36364C6.86848 5.36364 6.86429 5.36364 6.86009 5.36364C6.85589 5.36364 6.85169 5.36364 6.84749 5.36364C6.84329 5.36364 6.83909 5.36364 6.83488 5.36364C6.83068 5.36364 6.82647 5.36364 6.82227 5.36364C6.81806 5.36364 6.81385 5.36364 6.80964 5.36364C6.80544 5.36364 6.80122 5.36364 6.79701 5.36364C6.7928 5.36364 6.78859 5.36364 6.78437 5.36364C6.78016 5.36364 6.77594 5.36364 6.77172 5.36364C6.7675 5.36364 6.76329 5.36364 6.75906 5.36364C6.75484 5.36364 6.75062 5.36364 6.7464 5.36364C6.74217 5.36364 6.73795 5.36364 6.73372 5.36364C6.7295 5.36364 6.72527 5.36364 6.72104 5.36364C6.71681 5.36364 6.71258 5.36364 6.70834 5.36364C6.70411 5.36364 6.69988 5.36364 6.69564 5.36364C6.6914 5.36364 6.68717 5.36364 6.68293 5.36364C6.67869 5.36364 6.67445 5.36364 6.67021 5.36364C6.66596 5.36364 6.66172 5.36364 6.65747 5.36364C6.65323 5.36364 6.64898 5.36364 6.64473 5.36364C6.64048 5.36364 6.63623 5.36364 6.63198 5.36364C6.62773 5.36364 6.62348 5.36364 6.61922 5.36364C6.61496 5.36364 6.61071 5.36364 6.60645 5.36364C6.60219 5.36364 6.59793 5.36364 6.59367 5.36364C6.5894 5.36364 6.58514 5.36364 6.58088 5.36364C6.57661 5.36364 6.57234 5.36364 6.56807 5.36364C6.5638 5.36364 6.55953 5.36364 6.55526 5.36364C6.55099 5.36364 6.54671 5.36364 6.54244 5.36364C6.53816 5.36364 6.53388 5.36364 6.5296 5.36364C6.52532 5.36364 6.52104 5.36364 6.51676 5.36364C6.51248 5.36364 6.50819 5.36364 6.5039 5.36364C6.49962 5.36364 6.49533 5.36364 6.49104 5.36364C6.48675 5.36364 6.48245 5.36364 6.47816 5.36364C6.47387 5.36364 6.46957 5.36364 6.46527 5.36364C6.46097 5.36364 6.45667 5.36364 6.45237 5.36364C6.44807 5.36364 6.44377 5.36364 6.43946 5.36364C6.43515 5.36364 6.43085 5.36364 6.42654 5.36364C6.42223 5.36364 6.41792 5.36364 6.4136 5.36364C6.40929 5.36364 6.40497 5.36364 6.40066 5.36364C6.39634 5.36364 6.39202 5.36364 6.3877 5.36364C6.38338 5.36364 6.37905 5.36364 6.37473 5.36364C6.3704 5.36364 6.36608 5.36364 6.36175 5.36364C6.35742 5.36364 6.35309 5.36364 6.34875 5.36364C6.34442 5.36364 6.34008 5.36364 6.33575 5.36364C6.33141 5.36364 6.32707 5.36364 6.32273 5.36364C6.31839 5.36364 6.31404 5.36364 6.3097 5.36364C6.30535 5.36364 6.301 5.36364 6.29665 5.36364C6.2923 5.36364 6.28795 5.36364 6.2836 5.36364C6.27924 5.36364 6.27489 5.36364 6.27053 5.36364C6.26617 5.36364 6.26181 5.36364 6.25745 5.36364C6.25308 5.36364 6.24872 5.36364 6.24435 5.36364C6.23998 5.36364 6.23561 5.36364 6.23124 5.36364C6.22687 5.36364 6.2225 5.36364 6.21812 5.36364C6.21375 5.36364 6.20937 5.36364 6.20499 5.36364C6.20061 5.36364 6.19622 5.36364 6.19184 5.36364C6.18745 5.36364 6.18307 5.36364 6.17868 5.36364C6.17429 5.36364 6.1699 5.36364 6.1655 5.36364C6.16111 5.36364 6.15671 5.36364 6.15231 5.36364C6.14791 5.36364 6.14351 5.36364 6.13911 5.36364C6.13471 5.36364 6.1303 5.36364 6.12589 5.36364C6.12149 5.36364 6.11708 5.36364 6.11266 5.36364C6.10825 5.36364 6.10384 5.36364 6.09942 5.36364C6.095 5.36364 6.09058 5.36364 6.08616 5.36364C6.08174 5.36364 6.07731 5.36364 6.07289 5.36364C6.06846 5.36364 6.06403 5.36364 6.0596 5.36364C6.05517 5.36364 6.05073 5.36364 6.0463 5.36364C6.04186 5.36364 6.03742 5.36364 6.03298 5.36364C6.02854 5.36364 6.02409 5.36364 6.01965 5.36364C6.0152 5.36364 6.01075 5.36364 6.0063 5.36364C6.00185 5.36364 5.99739 5.36364 5.99294 5.36364C5.98848 5.36364 5.98402 5.36364 5.97956 5.36364C5.9751 5.36364 5.97064 5.36364 5.96617 5.36364C5.9617 5.36364 5.95723 5.36364 5.95276 5.36364C5.94829 5.36364 5.94382 5.36364 5.93934 5.36364C5.93486 5.36364 5.93038 5.36364 5.9259 5.36364C5.92142 5.36364 5.91693 5.36364 5.91245 5.36364C5.90796 5.36364 5.90347 5.36364 5.89898 5.36364C5.89448 5.36364 5.88999 5.36364 5.88549 5.36364C5.88099 5.36364 5.87649 5.36364 5.87199 5.36364C5.86749 5.36364 5.86298 5.36364 5.85847 5.36364C5.85396 5.36364 5.84945 5.36364 5.84494 5.36364C5.84042 5.36364 5.83591 5.36364 5.83139 5.36364C5.82687 5.36364 5.82235 5.36364 5.81782 5.36364C5.8133 5.36364 5.80877 5.36364 5.80424 5.36364C5.79971 5.36364 5.79518 5.36364 5.79064 5.36364C5.7861 5.36364 5.78156 5.36364 5.77702 5.36364C5.77248 5.36364 5.76794 5.36364 5.76339 5.36364C5.75884 5.36364 5.75429 5.36364 5.74974 5.36364C5.74519 5.36364 5.74063 5.36364 5.73607 5.36364C5.73152 5.36364 5.72695 5.36364 5.72239 5.36364C5.71783 5.36364 5.71326 5.36364 5.70869 5.36364C5.70412 5.36364 5.69955 5.36364 5.69497 5.36364C5.6904 5.36364 5.68582 5.36364 5.68124 5.36364C5.67665 5.36364 5.67207 5.36364 5.66748 5.36364C5.66289 5.36364 5.6583 5.36364 5.65371 5.36364C5.64912 5.36364 5.64452 5.36364 5.63992 5.36364C5.63532 5.36364 5.63072 5.36364 5.62612 5.36364C5.62151 5.36364 5.6169 5.36364 5.61229 5.36364C5.60768 5.36364 5.60307 5.36364 5.59845 5.36364C5.59383 5.36364 5.58921 5.36364 5.58459 5.36364C5.57996 5.36364 5.57534 5.36364 5.57071 5.36364C5.56608 5.36364 5.56145 5.36364 5.55681 5.36364C5.55218 5.36364 5.54754 5.36364 5.5429 5.36364C5.53825 5.36364 5.53361 5.36364 5.52896 5.36364C5.52431 5.36364 5.51966 5.36364 5.51501 5.36364C5.51035 5.36364 5.5057 5.36364 5.50104 5.36364C5.49638 5.36364 5.49171 5.36364 5.48705 5.36364C5.48238 5.36364 5.47771 5.36364 5.47304 5.36364C5.46836 5.36364 5.46369 5.36364 5.45901 5.36364C5.45433 5.36364 5.44965 5.36364 5.44496 5.36364C5.44027 5.36364 5.43558 5.36364 5.43089 5.36364C5.4262 5.36364 5.4215 5.36364 5.4168 5.36364C5.41211 5.36364 5.4074 5.36364 5.4027 5.36364C5.39799 5.36364 5.39328 5.36364 5.38857 5.36364C5.38386 5.36364 5.37914 5.36364 5.37443 5.36364C5.36971 5.36364 5.36499 5.36364 5.36026 5.36364C5.35554 5.36364 5.35081 5.36364 5.34608 5.36364C5.34134 5.36364 5.33661 5.36364 5.33187 5.36364C5.32713 5.36364 5.32239 5.36364 5.31764 5.36364C5.3129 5.36364 5.30815 5.36364 5.3034 5.36364C5.29865 5.36364 5.29389 5.36364 5.28913 5.36364C5.28437 5.36364 5.27961 5.36364 5.27484 5.36364C5.27008 5.36364 5.26531 5.36364 5.26054 5.36364C5.25576 5.36364 5.25099 5.36364 5.24621 5.36364C5.24143 5.36364 5.23665 5.36364 5.23186 5.36364C5.22707 5.36364 5.22228 5.36364 5.21749 5.36364C5.2127 5.36364 5.2079 5.36364 5.2031 5.36364C5.1983 5.36364 5.19349 5.36364 5.18869 5.36364C5.18388 5.36364 5.17907 5.36364 5.17425 5.36364C5.16944 5.36364 5.16462 5.36364 5.1598 5.36364C5.15498 5.36364 5.15015 5.36364 5.14532 5.36364C5.14049 5.36364 5.13566 5.36364 5.13083 5.36364C5.12599 5.36364 5.12115 5.36364 5.11631 5.36364C5.11146 5.36364 5.10662 5.36364 5.10177 5.36364C5.09691 5.36364 5.09206 5.36364 5.0872 5.36364C5.08235 5.36364 5.07748 5.36364 5.07262 5.36364C5.06775 5.36364 5.06288 5.36364 5.05801 5.36364C5.05314 5.36364 5.04826 5.36364 5.04338 5.36364C5.0385 5.36364 5.03362 5.36364 5.02873 5.36364C5.02384 5.36364 5.01895 5.36364 5.01406 5.36364C5.00916 5.36364 5.00426 5.36364 4.99936 5.36364C4.99446 5.36364 4.98955 5.36364 4.98464 5.36364C4.97973 5.36364 4.97482 5.36364 4.9699 5.36364C4.96498 5.36364 4.96006 5.36364 4.95514 5.36364C4.95021 5.36364 4.94528 5.36364 4.94035 5.36364C4.93542 5.36364 4.93048 5.36364 4.92554 5.36364C4.9206 5.36364 4.91565 5.36364 4.91071 5.36364C4.90576 5.36364 4.90081 5.36364 4.89585 5.36364C4.89089 5.36364 4.88593 5.36364 4.88097 5.36364C4.87601 5.36364 4.87104 5.36364 4.86607 5.36364C4.86109 5.36364 4.85612 5.36364 4.85114 5.36364C4.84616 5.36364 4.84118 5.36364 4.83619 5.36364C4.8312 5.36364 4.82621 5.36364 4.82121 5.36364C4.81622 5.36364 4.81122 5.36364 4.80622 5.36364C4.80121 5.36364 4.79621 5.36364 4.79119 5.36364C4.78618 5.36364 4.78117 5.36364 4.77615 5.36364C4.77113 5.36364 4.7661 5.36364 4.76108 5.36364C4.75605 5.36364 4.75102 5.36364 4.74598 5.36364C4.74095 5.36364 4.73591 5.36364 4.73086 5.36364C4.72582 5.36364 4.72077 5.36364 4.71572 5.36364C4.71067 5.36364 4.70561 5.36364 4.70055 5.36364C4.69549 5.36364 4.69043 5.36364 4.68536 5.36364C4.68029 5.36364 4.67522 5.36364 4.67014 5.36364C4.66506 5.36364 4.65998 5.36364 4.6549 5.36364C4.64981 5.36364 4.64472 5.36364 4.63963 5.36364C4.63454 5.36364 4.62944 5.36364 4.62434 5.36364C4.61924 5.36364 4.61413 5.36364 4.60902 5.36364C4.60391 5.36364 4.5988 5.36364 4.59368 5.36364C4.58856 5.36364 4.58344 5.36364 4.57831 5.36364C4.57318 5.36364 4.56805 5.36364 4.56291 5.36364C4.55778 5.36364 4.55264 5.36364 4.54749 5.36364C4.54235 5.36364 4.5372 5.36364 4.53205 5.36364C4.5269 5.36364 4.52174 5.36364 4.51658 5.36364C4.51142 5.36364 4.50625 5.36364 4.50108 5.36364C4.49591 5.36364 4.49074 5.36364 4.48556 5.36364C4.48038 5.36364 4.47519 5.36364 4.47001 5.36364C4.46482 5.36364 4.45963 5.36364 4.45443 5.36364C4.44923 5.36364 4.44403 5.36364 4.43883 5.36364C4.43362 5.36364 4.42841 5.36364 4.4232 5.36364C4.41798 5.36364 4.41277 5.36364 4.40754 5.36364C4.40232 5.36364 4.39709 5.36364 4.39186 5.36364C4.38663 5.36364 4.38139 5.36364 4.37615 5.36364C4.37091 5.36364 4.36567 5.36364 4.36042 5.36364V3.36364C4.36567 3.36364 4.37091 3.36364 4.37615 3.36364C4.38139 3.36364 4.38663 3.36364 4.39186 3.36364C4.39709 3.36364 4.40232 3.36364 4.40754 3.36364C4.41277 3.36364 4.41798 3.36364 4.4232 3.36364C4.42841 3.36364 4.43362 3.36364 4.43883 3.36364C4.44403 3.36364 4.44923 3.36364 4.45443 3.36364C4.45963 3.36364 4.46482 3.36364 4.47001 3.36364C4.47519 3.36364 4.48038 3.36364 4.48556 3.36364C4.49074 3.36364 4.49591 3.36364 4.50108 3.36364C4.50625 3.36364 4.51142 3.36364 4.51658 3.36364C4.52174 3.36364 4.5269 3.36364 4.53205 3.36364C4.5372 3.36364 4.54235 3.36364 4.54749 3.36364C4.55264 3.36364 4.55778 3.36364 4.56291 3.36364C4.56805 3.36364 4.57318 3.36364 4.57831 3.36364C4.58344 3.36364 4.58856 3.36364 4.59368 3.36364C4.5988 3.36364 4.60391 3.36364 4.60902 3.36364C4.61413 3.36364 4.61924 3.36364 4.62434 3.36364C4.62944 3.36364 4.63454 3.36364 4.63963 3.36364C4.64472 3.36364 4.64981 3.36364 4.6549 3.36364C4.65998 3.36364 4.66506 3.36364 4.67014 3.36364C4.67522 3.36364 4.68029 3.36364 4.68536 3.36364C4.69043 3.36364 4.69549 3.36364 4.70055 3.36364C4.70561 3.36364 4.71067 3.36364 4.71572 3.36364C4.72077 3.36364 4.72582 3.36364 4.73086 3.36364C4.73591 3.36364 4.74095 3.36364 4.74598 3.36364C4.75102 3.36364 4.75605 3.36364 4.76108 3.36364C4.7661 3.36364 4.77113 3.36364 4.77615 3.36364C4.78117 3.36364 4.78618 3.36364 4.79119 3.36364C4.79621 3.36364 4.80121 3.36364 4.80622 3.36364C4.81122 3.36364 4.81622 3.36364 4.82121 3.36364C4.82621 3.36364 4.8312 3.36364 4.83619 3.36364C4.84118 3.36364 4.84616 3.36364 4.85114 3.36364C4.85612 3.36364 4.86109 3.36364 4.86607 3.36364C4.87104 3.36364 4.87601 3.36364 4.88097 3.36364C4.88593 3.36364 4.89089 3.36364 4.89585 3.36364C4.90081 3.36364 4.90576 3.36364 4.91071 3.36364C4.91565 3.36364 4.9206 3.36364 4.92554 3.36364C4.93048 3.36364 4.93542 3.36364 4.94035 3.36364C4.94528 3.36364 4.95021 3.36364 4.95514 3.36364C4.96006 3.36364 4.96498 3.36364 4.9699 3.36364C4.97482 3.36364 4.97973 3.36364 4.98464 3.36364C4.98955 3.36364 4.99446 3.36364 4.99936 3.36364C5.00426 3.36364 5.00916 3.36364 5.01406 3.36364C5.01895 3.36364 5.02384 3.36364 5.02873 3.36364C5.03362 3.36364 5.0385 3.36364 5.04338 3.36364C5.04826 3.36364 5.05314 3.36364 5.05801 3.36364C5.06288 3.36364 5.06775 3.36364 5.07262 3.36364C5.07748 3.36364 5.08235 3.36364 5.0872 3.36364C5.09206 3.36364 5.09691 3.36364 5.10177 3.36364C5.10662 3.36364 5.11146 3.36364 5.11631 3.36364C5.12115 3.36364 5.12599 3.36364 5.13083 3.36364C5.13566 3.36364 5.14049 3.36364 5.14532 3.36364C5.15015 3.36364 5.15498 3.36364 5.1598 3.36364C5.16462 3.36364 5.16944 3.36364 5.17425 3.36364C5.17907 3.36364 5.18388 3.36364 5.18869 3.36364C5.19349 3.36364 5.1983 3.36364 5.2031 3.36364C5.2079 3.36364 5.2127 3.36364 5.21749 3.36364C5.22228 3.36364 5.22707 3.36364 5.23186 3.36364C5.23665 3.36364 5.24143 3.36364 5.24621 3.36364C5.25099 3.36364 5.25576 3.36364 5.26054 3.36364C5.26531 3.36364 5.27008 3.36364 5.27484 3.36364C5.27961 3.36364 5.28437 3.36364 5.28913 3.36364C5.29389 3.36364 5.29865 3.36364 5.3034 3.36364C5.30815 3.36364 5.3129 3.36364 5.31764 3.36364C5.32239 3.36364 5.32713 3.36364 5.33187 3.36364C5.33661 3.36364 5.34134 3.36364 5.34608 3.36364C5.35081 3.36364 5.35554 3.36364 5.36026 3.36364C5.36499 3.36364 5.36971 3.36364 5.37443 3.36364C5.37914 3.36364 5.38386 3.36364 5.38857 3.36364C5.39328 3.36364 5.39799 3.36364 5.4027 3.36364C5.4074 3.36364 5.41211 3.36364 5.4168 3.36364C5.4215 3.36364 5.4262 3.36364 5.43089 3.36364C5.43558 3.36364 5.44027 3.36364 5.44496 3.36364C5.44965 3.36364 5.45433 3.36364 5.45901 3.36364C5.46369 3.36364 5.46836 3.36364 5.47304 3.36364C5.47771 3.36364 5.48238 3.36364 5.48705 3.36364C5.49171 3.36364 5.49638 3.36364 5.50104 3.36364C5.5057 3.36364 5.51035 3.36364 5.51501 3.36364C5.51966 3.36364 5.52431 3.36364 5.52896 3.36364C5.53361 3.36364 5.53825 3.36364 5.5429 3.36364C5.54754 3.36364 5.55218 3.36364 5.55681 3.36364C5.56145 3.36364 5.56608 3.36364 5.57071 3.36364C5.57534 3.36364 5.57996 3.36364 5.58459 3.36364C5.58921 3.36364 5.59383 3.36364 5.59845 3.36364C5.60307 3.36364 5.60768 3.36364 5.61229 3.36364C5.6169 3.36364 5.62151 3.36364 5.62612 3.36364C5.63072 3.36364 5.63532 3.36364 5.63992 3.36364C5.64452 3.36364 5.64912 3.36364 5.65371 3.36364C5.6583 3.36364 5.66289 3.36364 5.66748 3.36364C5.67207 3.36364 5.67665 3.36364 5.68124 3.36364C5.68582 3.36364 5.6904 3.36364 5.69497 3.36364C5.69955 3.36364 5.70412 3.36364 5.70869 3.36364C5.71326 3.36364 5.71783 3.36364 5.72239 3.36364C5.72695 3.36364 5.73152 3.36364 5.73607 3.36364C5.74063 3.36364 5.74519 3.36364 5.74974 3.36364C5.75429 3.36364 5.75884 3.36364 5.76339 3.36364C5.76794 3.36364 5.77248 3.36364 5.77702 3.36364C5.78156 3.36364 5.7861 3.36364 5.79064 3.36364C5.79518 3.36364 5.79971 3.36364 5.80424 3.36364C5.80877 3.36364 5.8133 3.36364 5.81782 3.36364C5.82235 3.36364 5.82687 3.36364 5.83139 3.36364C5.83591 3.36364 5.84042 3.36364 5.84494 3.36364C5.84945 3.36364 5.85396 3.36364 5.85847 3.36364C5.86298 3.36364 5.86749 3.36364 5.87199 3.36364C5.87649 3.36364 5.88099 3.36364 5.88549 3.36364C5.88999 3.36364 5.89448 3.36364 5.89898 3.36364C5.90347 3.36364 5.90796 3.36364 5.91245 3.36364C5.91693 3.36364 5.92142 3.36364 5.9259 3.36364C5.93038 3.36364 5.93486 3.36364 5.93934 3.36364C5.94382 3.36364 5.94829 3.36364 5.95276 3.36364C5.95723 3.36364 5.9617 3.36364 5.96617 3.36364C5.97064 3.36364 5.9751 3.36364 5.97956 3.36364C5.98402 3.36364 5.98848 3.36364 5.99294 3.36364C5.99739 3.36364 6.00185 3.36364 6.0063 3.36364C6.01075 3.36364 6.0152 3.36364 6.01965 3.36364C6.02409 3.36364 6.02854 3.36364 6.03298 3.36364C6.03742 3.36364 6.04186 3.36364 6.0463 3.36364C6.05073 3.36364 6.05517 3.36364 6.0596 3.36364C6.06403 3.36364 6.06846 3.36364 6.07289 3.36364C6.07731 3.36364 6.08174 3.36364 6.08616 3.36364C6.09058 3.36364 6.095 3.36364 6.09942 3.36364C6.10384 3.36364 6.10825 3.36364 6.11266 3.36364C6.11708 3.36364 6.12149 3.36364 6.12589 3.36364C6.1303 3.36364 6.13471 3.36364 6.13911 3.36364C6.14351 3.36364 6.14791 3.36364 6.15231 3.36364C6.15671 3.36364 6.16111 3.36364 6.1655 3.36364C6.1699 3.36364 6.17429 3.36364 6.17868 3.36364C6.18307 3.36364 6.18745 3.36364 6.19184 3.36364C6.19622 3.36364 6.20061 3.36364 6.20499 3.36364C6.20937 3.36364 6.21375 3.36364 6.21812 3.36364C6.2225 3.36364 6.22687 3.36364 6.23124 3.36364C6.23561 3.36364 6.23998 3.36364 6.24435 3.36364C6.24872 3.36364 6.25308 3.36364 6.25745 3.36364C6.26181 3.36364 6.26617 3.36364 6.27053 3.36364C6.27489 3.36364 6.27924 3.36364 6.2836 3.36364C6.28795 3.36364 6.2923 3.36364 6.29665 3.36364C6.301 3.36364 6.30535 3.36364 6.3097 3.36364C6.31404 3.36364 6.31839 3.36364 6.32273 3.36364C6.32707 3.36364 6.33141 3.36364 6.33575 3.36364C6.34008 3.36364 6.34442 3.36364 6.34875 3.36364C6.35309 3.36364 6.35742 3.36364 6.36175 3.36364C6.36608 3.36364 6.3704 3.36364 6.37473 3.36364C6.37905 3.36364 6.38338 3.36364 6.3877 3.36364C6.39202 3.36364 6.39634 3.36364 6.40066 3.36364C6.40497 3.36364 6.40929 3.36364 6.4136 3.36364C6.41792 3.36364 6.42223 3.36364 6.42654 3.36364C6.43085 3.36364 6.43515 3.36364 6.43946 3.36364C6.44377 3.36364 6.44807 3.36364 6.45237 3.36364C6.45667 3.36364 6.46097 3.36364 6.46527 3.36364C6.46957 3.36364 6.47387 3.36364 6.47816 3.36364C6.48245 3.36364 6.48675 3.36364 6.49104 3.36364C6.49533 3.36364 6.49962 3.36364 6.5039 3.36364C6.50819 3.36364 6.51248 3.36364 6.51676 3.36364C6.52104 3.36364 6.52532 3.36364 6.5296 3.36364C6.53388 3.36364 6.53816 3.36364 6.54244 3.36364C6.54671 3.36364 6.55099 3.36364 6.55526 3.36364C6.55953 3.36364 6.5638 3.36364 6.56807 3.36364C6.57234 3.36364 6.57661 3.36364 6.58088 3.36364C6.58514 3.36364 6.5894 3.36364 6.59367 3.36364C6.59793 3.36364 6.60219 3.36364 6.60645 3.36364C6.61071 3.36364 6.61496 3.36364 6.61922 3.36364C6.62348 3.36364 6.62773 3.36364 6.63198 3.36364C6.63623 3.36364 6.64048 3.36364 6.64473 3.36364C6.64898 3.36364 6.65323 3.36364 6.65747 3.36364C6.66172 3.36364 6.66596 3.36364 6.67021 3.36364C6.67445 3.36364 6.67869 3.36364 6.68293 3.36364C6.68717 3.36364 6.6914 3.36364 6.69564 3.36364C6.69988 3.36364 6.70411 3.36364 6.70834 3.36364C6.71258 3.36364 6.71681 3.36364 6.72104 3.36364C6.72527 3.36364 6.7295 3.36364 6.73372 3.36364C6.73795 3.36364 6.74217 3.36364 6.7464 3.36364C6.75062 3.36364 6.75484 3.36364 6.75906 3.36364C6.76329 3.36364 6.7675 3.36364 6.77172 3.36364C6.77594 3.36364 6.78016 3.36364 6.78437 3.36364C6.78859 3.36364 6.7928 3.36364 6.79701 3.36364C6.80122 3.36364 6.80544 3.36364 6.80964 3.36364C6.81385 3.36364 6.81806 3.36364 6.82227 3.36364C6.82647 3.36364 6.83068 3.36364 6.83488 3.36364C6.83909 3.36364 6.84329 3.36364 6.84749 3.36364C6.85169 3.36364 6.85589 3.36364 6.86009 3.36364C6.86429 3.36364 6.86848 3.36364 6.87268 3.36364C6.87687 3.36364 6.88107 3.36364 6.88526 3.36364C6.88946 3.36364 6.89365 3.36364 6.89784 3.36364C6.90203 3.36364 6.90622 3.36364 6.91041 3.36364C6.91459 3.36364 6.91878 3.36364 6.92296 3.36364C6.92715 3.36364 6.93133 3.36364 6.93552 3.36364C6.9397 3.36364 6.94388 3.36364 6.94806 3.36364C6.95224 3.36364 6.95642 3.36364 6.9606 3.36364C6.96478 3.36364 6.96895 3.36364 6.97313 3.36364C6.97731 3.36364 6.98148 3.36364 6.98565 3.36364C6.98983 3.36364 6.994 3.36364 6.99817 3.36364C7.00234 3.36364 7.00651 3.36364 7.01068 3.36364C7.01485 3.36364 7.01901 3.36364 7.02318 3.36364C7.02735 3.36364 7.03151 3.36364 7.03568 3.36364C7.03984 3.36364 7.044 3.36364 7.04817 3.36364C7.05233 3.36364 7.05649 3.36364 7.06065 3.36364C7.06481 3.36364 7.06897 3.36364 7.07313 3.36364C7.07728 3.36364 7.08144 3.36364 7.0856 3.36364C7.08975 3.36364 7.09391 3.36364 7.09806 3.36364C7.10221 3.36364 7.10637 3.36364 7.11052 3.36364C7.11467 3.36364 7.11882 3.36364 7.12297 3.36364C7.12712 3.36364 7.13127 3.36364 7.13542 3.36364C7.13957 3.36364 7.14371 3.36364 7.14786 3.36364C7.15201 3.36364 7.15615 3.36364 7.1603 3.36364C7.16444 3.36364 7.16858 3.36364 7.17272 3.36364C7.17687 3.36364 7.18101 3.36364 7.18515 3.36364C7.18929 3.36364 7.19343 3.36364 7.19757 3.36364C7.20171 3.36364 7.20585 3.36364 7.20998 3.36364C7.21412 3.36364 7.21826 3.36364 7.22239 3.36364C7.22653 3.36364 7.23066 3.36364 7.2348 3.36364C7.23893 3.36364 7.24306 3.36364 7.24719 3.36364C7.25133 3.36364 7.25546 3.36364 7.25959 3.36364C7.26372 3.36364 7.26785 3.36364 7.27198 3.36364C7.27611 3.36364 7.28024 3.36364 7.28436 3.36364C7.28849 3.36364 7.29262 3.36364 7.29674 3.36364C7.30087 3.36364 7.305 3.36364 7.30912 3.36364C7.31325 3.36364 7.31737 3.36364 7.32149 3.36364C7.32562 3.36364 7.32974 3.36364 7.33386 3.36364C7.33798 3.36364 7.3421 3.36364 7.34623 3.36364C7.35035 3.36364 7.35447 3.36364 7.35859 3.36364C7.36271 3.36364 7.36682 3.36364 7.37094 3.36364C7.37506 3.36364 7.37918 3.36364 7.3833 3.36364C7.38741 3.36364 7.39153 3.36364 7.39564 3.36364C7.39976 3.36364 7.40387 3.36364 7.40799 3.36364C7.4121 3.36364 7.41622 3.36364 7.42033 3.36364C7.42445 3.36364 7.42856 3.36364 7.43267 3.36364C7.43678 3.36364 7.4409 3.36364 7.44501 3.36364C7.44912 3.36364 7.45323 3.36364 7.45734 3.36364C7.46145 3.36364 7.46556 3.36364 7.46967 3.36364C7.47378 3.36364 7.47789 3.36364 7.482 3.36364C7.4861 3.36364 7.49021 3.36364 7.49432 3.36364C7.49843 3.36364 7.50253 3.36364 7.50664 3.36364C7.51075 3.36364 7.51485 3.36364 7.51896 3.36364C7.52307 3.36364 7.52717 3.36364 7.53128 3.36364C7.53538 3.36364 7.53949 3.36364 7.54359 3.36364C7.5477 3.36364 7.5518 3.36364 7.5559 3.36364C7.56001 3.36364 7.56411 3.36364 7.56821 3.36364C7.57232 3.36364 7.57642 3.36364 7.58052 3.36364C7.58462 3.36364 7.58873 3.36364 7.59283 3.36364C7.59693 3.36364 7.60103 3.36364 7.60513 3.36364C7.60923 3.36364 7.61333 3.36364 7.61743 3.36364C7.62153 3.36364 7.62563 3.36364 7.62973 3.36364C7.63383 3.36364 7.63793 3.36364 7.64203 3.36364C7.64613 3.36364 7.65023 3.36364 7.65433 3.36364C7.65843 3.36364 7.66253 3.36364 7.66663 3.36364C7.67073 3.36364 7.67483 3.36364 7.67892 3.36364C7.68302 3.36364 7.68712 3.36364 7.69122 3.36364C7.69532 3.36364 7.69942 3.36364 7.70351 3.36364C7.70761 3.36364 7.71171 3.36364 7.71581 3.36364C7.7199 3.36364 7.724 3.36364 7.7281 3.36364C7.73219 3.36364 7.73629 3.36364 7.74039 3.36364C7.74449 3.36364 7.74858 3.36364 7.75268 3.36364C7.75678 3.36364 7.76087 3.36364 7.76497 3.36364C7.76907 3.36364 7.77316 3.36364 7.77726 3.36364C7.78136 3.36364 7.78545 3.36364 7.78955 3.36364C7.79365 3.36364 7.79774 3.36364 7.80184 3.36364C7.80594 3.36364 7.81003 3.36364 7.81413 3.36364C7.81823 3.36364 7.82232 3.36364 7.82642 3.36364C7.83052 3.36364 7.83461 3.36364 7.83871 3.36364C7.84281 3.36364 7.8469 3.36364 7.851 3.36364C7.8551 3.36364 7.85919 3.36364 7.86329 3.36364C7.86739 3.36364 7.87149 3.36364 7.87558 3.36364C7.87968 3.36364 7.88378 3.36364 7.88788 3.36364C7.89197 3.36364 7.89607 3.36364 7.90017 3.36364C7.90427 3.36364 7.90836 3.36364 7.91246 3.36364C7.91656 3.36364 7.92066 3.36364 7.92476 3.36364C7.92885 3.36364 7.93295 3.36364 7.93705 3.36364C7.94115 3.36364 7.94525 3.36364 7.94935 3.36364C7.95345 3.36364 7.95755 3.36364 7.96165 3.36364C7.96575 3.36364 7.96985 3.36364 7.97395 3.36364C7.97805 3.36364 7.98215 3.36364 7.98625 3.36364C7.99035 3.36364 7.99445 3.36364 7.99855 3.36364C8.00265 3.36364 8.00675 3.36364 8.01085 3.36364C8.01496 3.36364 8.01906 3.36364 8.02316 3.36364C8.02726 3.36364 8.03136 3.36364 8.03547 3.36364C8.03957 3.36364 8.04367 3.36364 8.04778 3.36364C8.05188 3.36364 8.05599 3.36364 8.06009 3.36364C8.06419 3.36364 8.0683 3.36364 8.0724 3.36364C8.07651 3.36364 8.08062 3.36364 8.08472 3.36364C8.08883 3.36364 8.09293 3.36364 8.09704 3.36364C8.10115 3.36364 8.10525 3.36364 8.10936 3.36364C8.11347 3.36364 8.11758 3.36364 8.12169 3.36364C8.12579 3.36364 8.1299 3.36364 8.13401 3.36364C8.13812 3.36364 8.14223 3.36364 8.14634 3.36364C8.15045 3.36364 8.15456 3.36364 8.15867 3.36364C8.16279 3.36364 8.1669 3.36364 8.17101 3.36364C8.17512 3.36364 8.17924 3.36364 8.18335 3.36364C8.18746 3.36364 8.19158 3.36364 8.19569 3.36364C8.19981 3.36364 8.20392 3.36364 8.20804 3.36364C8.21215 3.36364 8.21627 3.36364 8.22039 3.36364C8.2245 3.36364 8.22862 3.36364 8.23274 3.36364C8.23686 3.36364 8.24098 3.36364 8.2451 3.36364C8.24921 3.36364 8.25333 3.36364 8.25746 3.36364C8.26158 3.36364 8.2657 3.36364 8.26982 3.36364C8.27394 3.36364 8.27806 3.36364 8.28219 3.36364C8.28631 3.36364 8.29044 3.36364 8.29456 3.36364C8.29868 3.36364 8.30281 3.36364 8.30694 3.36364C8.31106 3.36364 8.31519 3.36364 8.31932 3.36364C8.32344 3.36364 8.32757 3.36364 8.3317 3.36364C8.33583 3.36364 8.33996 3.36364 8.34409 3.36364C8.34822 3.36364 8.35235 3.36364 8.35649 3.36364C8.36062 3.36364 8.36475 3.36364 8.36889 3.36364C8.37302 3.36364 8.37715 3.36364 8.38129 3.36364C8.38543 3.36364 8.38956 3.36364 8.3937 3.36364C8.39784 3.36364 8.40197 3.36364 8.40611 3.36364C8.41025 3.36364 8.41439 3.36364 8.41853 3.36364C8.42267 3.36364 8.42681 3.36364 8.43096 3.36364C8.4351 3.36364 8.43924 3.36364 8.44339 3.36364C8.44753 3.36364 8.45168 3.36364 8.45582 3.36364C8.45997 3.36364 8.46411 3.36364 8.46826 3.36364C8.47241 3.36364 8.47656 3.36364 8.48071 3.36364C8.48486 3.36364 8.48901 3.36364 8.49316 3.36364C8.49731 3.36364 8.50147 3.36364 8.50562 3.36364C8.50977 3.36364 8.51393 3.36364 8.51808 3.36364C8.52224 3.36364 8.5264 3.36364 8.53055 3.36364C8.53471 3.36364 8.53887 3.36364 8.54303 3.36364C8.54719 3.36364 8.55135 3.36364 8.55551 3.36364C8.55968 3.36364 8.56384 3.36364 8.568 3.36364C8.57217 3.36364 8.57633 3.36364 8.5805 3.36364C8.58467 3.36364 8.58883 3.36364 8.593 3.36364C8.59717 3.36364 8.60134 3.36364 8.60551 3.36364C8.60968 3.36364 8.61386 3.36364 8.61803 3.36364C8.6222 3.36364 8.62638 3.36364 8.63055 3.36364C8.63473 3.36364 8.6389 3.36364 8.64308 3.36364C8.64726 3.36364 8.65144 3.36364 8.65562 3.36364C8.6598 3.36364 8.66398 3.36364 8.66816 3.36364C8.67235 3.36364 8.67653 3.36364 8.68072 3.36364C8.6849 3.36364 8.68909 3.36364 8.69328 3.36364C8.69746 3.36364 8.70165 3.36364 8.70584 3.36364C8.71003 3.36364 8.71423 3.36364 8.71842 3.36364C8.72261 3.36364 8.72681 3.36364 8.731 3.36364C8.7352 3.36364 8.73939 3.36364 8.74359 3.36364C8.74779 3.36364 8.75199 3.36364 8.75619 3.36364C8.76039 3.36364 8.76459 3.36364 8.7688 3.36364C8.773 3.36364 8.77721 3.36364 8.78141 3.36364C8.78562 3.36364 8.78983 3.36364 8.79404 3.36364C8.79825 3.36364 8.80246 3.36364 8.80667 3.36364C8.81088 3.36364 8.81509 3.36364 8.81931 3.36364C8.82352 3.36364 8.82774 3.36364 8.83196 3.36364C8.83618 3.36364 8.8404 3.36364 8.84462 3.36364C8.84884 3.36364 8.85306 3.36364 8.85728 3.36364C8.86151 3.36364 8.86573 3.36364 8.86996 3.36364C8.87419 3.36364 8.87841 3.36364 8.88264 3.36364C8.88687 3.36364 8.8911 3.36364 8.89534 3.36364C8.89957 3.36364 8.9038 3.36364 8.90804 3.36364C8.91228 3.36364 8.91651 3.36364 8.92075 3.36364C8.92499 3.36364 8.92923 3.36364 8.93348 3.36364C8.93772 3.36364 8.94196 3.36364 8.94621 3.36364C8.95045 3.36364 8.9547 3.36364 8.95895 3.36364C8.9632 3.36364 8.96745 3.36364 8.9717 3.36364C8.97595 3.36364 8.98021 3.36364 8.98446 3.36364C8.98872 3.36364 8.99297 3.36364 8.99723 3.36364C9.00149 3.36364 9.00575 3.36364 9.01001 3.36364C9.01428 3.36364 9.01854 3.36364 9.02281 3.36364C9.02707 3.36364 9.03134 3.36364 9.03561 3.36364C9.03988 3.36364 9.04415 3.36364 9.04842 3.36364C9.05269 3.36364 9.05697 3.36364 9.06124 3.36364C9.06552 3.36364 9.0698 3.36364 9.07408 3.36364C9.07836 3.36364 9.08264 3.36364 9.08692 3.36364C9.09121 3.36364 9.09549 3.36364 9.09978 3.36364C9.10406 3.36364 9.10835 3.36364 9.11264 3.36364C9.11693 3.36364 9.12123 3.36364 9.12552 3.36364C9.12982 3.36364 9.13411 3.36364 9.13841 3.36364C9.14271 3.36364 9.14701 3.36364 9.15131 3.36364C9.15561 3.36364 9.15991 3.36364 9.16422 3.36364C9.16853 3.36364 9.17283 3.36364 9.17714 3.36364C9.18145 3.36364 9.18576 3.36364 9.19008 3.36364C9.19439 3.36364 9.19871 3.36364 9.20302 3.36364C9.20734 3.36364 9.21166 3.36364 9.21598 3.36364C9.2203 3.36364 9.22463 3.36364 9.22895 3.36364C9.23328 3.36364 9.2376 3.36364 9.24193 3.36364C9.24626 3.36364 9.25059 3.36364 9.25493 3.36364C9.25926 3.36364 9.2636 3.36364 9.26793 3.36364C9.27227 3.36364 9.27661 3.36364 9.28095 3.36364C9.28529 3.36364 9.28964 3.36364 9.29398 3.36364C9.29833 3.36364 9.30268 3.36364 9.30703 3.36364C9.31138 3.36364 9.31573 3.36364 9.32008 3.36364C9.32444 3.36364 9.32879 3.36364 9.33315 3.36364C9.33751 3.36364 9.34187 3.36364 9.34624 3.36364C9.3506 3.36364 9.35496 3.36364 9.35933 3.36364C9.3637 3.36364 9.36807 3.36364 9.37244 3.36364C9.37681 3.36364 9.38118 3.36364 9.38556 3.36364C9.38994 3.36364 9.39431 3.36364 9.39869 3.36364C9.40307 3.36364 9.40746 3.36364 9.41184 3.36364C9.41623 3.36364 9.42061 3.36364 9.425 3.36364C9.42939 3.36364 9.43378 3.36364 9.43818 3.36364C9.44257 3.36364 9.44697 3.36364 9.45137 3.36364C9.45577 3.36364 9.46017 3.36364 9.46457 3.36364C9.46897 3.36364 9.47338 3.36364 9.47779 3.36364C9.48219 3.36364 9.48661 3.36364 9.49102 3.36364C9.49543 3.36364 9.49985 3.36364 9.50426 3.36364C9.50868 3.36364 9.5131 3.36364 9.51752 3.36364C9.52194 3.36364 9.52637 3.36364 9.5308 3.36364C9.53522 3.36364 9.53965 3.36364 9.54408 3.36364C9.54851 3.36364 9.55295 3.36364 9.55739 3.36364C9.56182 3.36364 9.56626 3.36364 9.5707 3.36364C9.57514 3.36364 9.57959 3.36364 9.58403 3.36364C9.58848 3.36364 9.59293 3.36364 9.59738 3.36364C9.60183 3.36364 9.60629 3.36364 9.61074 3.36364C9.6152 3.36364 9.61966 3.36364 9.62412 3.36364C9.62858 3.36364 9.63305 3.36364 9.63751 3.36364C9.64198 3.36364 9.64645 3.36364 9.65092 3.36364C9.65539 3.36364 9.65987 3.36364 9.66434 3.36364C9.66882 3.36364 9.6733 3.36364 9.67778 3.36364C9.68226 3.36364 9.68675 3.36364 9.69124 3.36364C9.69572 3.36364 9.70021 3.36364 9.7047 3.36364C9.7092 3.36364 9.71369 3.36364 9.71819 3.36364C9.72269 3.36364 9.72719 3.36364 9.73169 3.36364C9.7362 3.36364 9.7407 3.36364 9.74521 3.36364C9.74972 3.36364 9.75423 3.36364 9.75874 3.36364C9.76326 3.36364 9.76777 3.36364 9.77229 3.36364C9.77681 3.36364 9.78133 3.36364 9.78586 3.36364C9.79038 3.36364 9.79491 3.36364 9.79944 3.36364C9.80397 3.36364 9.80851 3.36364 9.81304 3.36364C9.81758 3.36364 9.82212 3.36364 9.82666 3.36364C9.8312 3.36364 9.83574 3.36364 9.84029 3.36364C9.84484 3.36364 9.84939 3.36364 9.85394 3.36364C9.85849 3.36364 9.86305 3.36364 9.86761 3.36364C9.87217 3.36364 9.87673 3.36364 9.88129 3.36364C9.88585 3.36364 9.89042 3.36364 9.89499 3.36364C9.89956 3.36364 9.90413 3.36364 9.90871 3.36364C9.91329 3.36364 9.91786 3.36364 9.92245 3.36364C9.92703 3.36364 9.93161 3.36364 9.9362 3.36364C9.94079 3.36364 9.94538 3.36364 9.94997 3.36364C9.95456 3.36364 9.95916 3.36364 9.96376 3.36364C9.96836 3.36364 9.97296 3.36364 9.97757 3.36364C9.98217 3.36364 9.98678 3.36364 9.99139 3.36364C9.996 3.36364 10.0006 3.36364 10.0052 3.36364C10.0098 3.36364 10.0145 3.36364 10.0191 3.36364C10.0237 3.36364 10.0283 3.36364 10.033 3.36364C10.0376 3.36364 10.0422 3.36364 10.0469 3.36364C10.0515 3.36364 10.0561 3.36364 10.0608 3.36364C10.0654 3.36364 10.0701 3.36364 10.0747 3.36364C10.0794 3.36364 10.084 3.36364 10.0887 3.36364C10.0933 3.36364 10.098 3.36364 10.1026 3.36364C10.1073 3.36364 10.112 3.36364 10.1166 3.36364C10.1213 3.36364 10.126 3.36364 10.1306 3.36364C10.1353 3.36364 10.14 3.36364 10.1447 3.36364C10.1494 3.36364 10.154 3.36364 10.1587 3.36364C10.1634 3.36364 10.1681 3.36364 10.1728 3.36364C10.1775 3.36364 10.1822 3.36364 10.1869 3.36364C10.1916 3.36364 10.1963 3.36364 10.201 3.36364C10.2057 3.36364 10.2104 3.36364 10.2151 3.36364C10.2198 3.36364 10.2245 3.36364 10.2293 3.36364C10.234 3.36364 10.2387 3.36364 10.2434 3.36364C10.2481 3.36364 10.2529 3.36364 10.2576 3.36364C10.2623 3.36364 10.2671 3.36364 10.2718 3.36364C10.2765 3.36364 10.2813 3.36364 10.286 3.36364C10.2908 3.36364 10.2955 3.36364 10.3003 3.36364C10.305 3.36364 10.3098 3.36364 10.3145 3.36364C10.3193 3.36364 10.3241 3.36364 10.3288 3.36364C10.3336 3.36364 10.3384 3.36364 10.3431 3.36364C10.3479 3.36364 10.3527 3.36364 10.3575 3.36364C10.3623 3.36364 10.367 3.36364 10.3718 3.36364C10.3766 3.36364 10.3814 3.36364 10.3862 3.36364C10.391 3.36364 10.3958 3.36364 10.4006 3.36364C10.4054 3.36364 10.4102 3.36364 10.415 3.36364C10.4198 3.36364 10.4246 3.36364 10.4294 3.36364C10.4342 3.36364 10.4391 3.36364 10.4439 3.36364C10.4487 3.36364 10.4535 3.36364 10.4584 3.36364C10.4632 3.36364 10.468 3.36364 10.4729 3.36364C10.4777 3.36364 10.4825 3.36364 10.4874 3.36364C10.4922 3.36364 10.4971 3.36364 10.5019 3.36364C10.5068 3.36364 10.5116 3.36364 10.5165 3.36364C10.5213 3.36364 10.5262 3.36364 10.5311 3.36364C10.5359 3.36364 10.5408 3.36364 10.5457 3.36364C10.5505 3.36364 10.5554 3.36364 10.5603 3.36364C10.5652 3.36364 10.5701 3.36364 10.575 3.36364C10.5798 3.36364 10.5847 3.36364 10.5896 3.36364C10.5945 3.36364 10.5994 3.36364 10.6043 3.36364C10.6092 3.36364 10.6141 3.36364 10.619 3.36364C10.6239 3.36364 10.6289 3.36364 10.6338 3.36364C10.6387 3.36364 10.6436 3.36364 10.6485 3.36364C10.6535 3.36364 10.6584 3.36364 10.6633 3.36364C10.6683 3.36364 10.6732 3.36364 10.6781 3.36364C10.6831 3.36364 10.688 3.36364 10.693 3.36364C10.6979 3.36364 10.7029 3.36364 10.7078 3.36364C10.7128 3.36364 10.7177 3.36364 10.7227 3.36364C10.7277 3.36364 10.7326 3.36364 10.7376 3.36364C10.7426 3.36364 10.7476 3.36364 10.7525 3.36364C10.7575 3.36364 10.7625 3.36364 10.7675 3.36364C10.7725 3.36364 10.7775 3.36364 10.7825 3.36364C10.7875 3.36364 10.7925 3.36364 10.7975 3.36364C10.8025 3.36364 10.8075 3.36364 10.8125 3.36364C10.8175 3.36364 10.8225 3.36364 10.8275 3.36364C10.8326 3.36364 10.8376 3.36364 10.8426 3.36364C10.8476 3.36364 10.8527 3.36364 10.8577 3.36364C10.8627 3.36364 10.8678 3.36364 10.8728 3.36364C10.8779 3.36364 10.8829 3.36364 10.888 3.36364C10.893 3.36364 10.8981 3.36364 10.9031 3.36364C10.9082 3.36364 10.9133 3.36364 10.9183 3.36364C10.9234 3.36364 10.9285 3.36364 10.9335 3.36364C10.9386 3.36364 10.9437 3.36364 10.9488 3.36364C10.9539 3.36364 10.959 3.36364 10.964 3.36364C10.9691 3.36364 10.9742 3.36364 10.9793 3.36364C10.9844 3.36364 10.9895 3.36364 10.9947 3.36364C10.9998 3.36364 11.0049 3.36364 11.01 3.36364C11.0151 3.36364 11.0202 3.36364 11.0254 3.36364C11.0305 3.36364 11.0356 3.36364 11.0408 3.36364C11.0459 3.36364 11.051 3.36364 11.0562 3.36364C11.0613 3.36364 11.0665 3.36364 11.0716 3.36364C11.0768 3.36364 11.0819 3.36364 11.0871 3.36364C11.0923 3.36364 11.0974 3.36364 11.1026 3.36364C11.1078 3.36364 11.1129 3.36364 11.1181 3.36364C11.1233 3.36364 11.1285 3.36364 11.1337 3.36364C11.1389 3.36364 11.1441 3.36364 11.1493 3.36364C11.1544 3.36364 11.1596 3.36364 11.1649 3.36364C11.1701 3.36364 11.1753 3.36364 11.1805 3.36364C11.1857 3.36364 11.1909 3.36364 11.1961 3.36364C11.2014 3.36364 11.2066 3.36364 11.2118 3.36364C11.2171 3.36364 11.2223 3.36364 11.2275 3.36364C11.2328 3.36364 11.238 3.36364 11.2433 3.36364V5.36364ZM7.53712 8.27273H4.36042V6.27273H7.53712V8.27273ZM8.02069 11.7333V9.73333H8.75016L9.30833 10.203L8.02069 11.7333ZM13.0916 16V18H12.3622L11.804 17.5304L13.0916 16ZM13.9538 16H15.9538V18H13.9538V16ZM13.9538 11.7333H11.9538V9.73333H13.9538V11.7333ZM2.12476 1.98241V9.75093H-1.87524V1.98241H2.12476ZM2.12476 9.75093C2.12476 9.75405 2.12504 9.75412 2.12459 9.75194C2.12416 9.74986 2.12337 9.74718 2.12217 9.74435C2.11976 9.7387 2.11713 9.73565 2.11601 9.73455C2.11499 9.73354 2.11422 9.73311 2.11361 9.73286C2.1132 9.73269 2.11313 9.73272 2.11367 9.73282C2.11411 9.73291 2.1163 9.73333 2.1208 9.73333V13.7333C-0.059906 13.7333 -1.87524 11.986 -1.87524 9.75093H2.12476ZM2.1208 9.73333H8.02069V13.7333H2.1208V9.73333ZM9.30833 10.203L14.3793 14.4696L11.804 17.5304L6.73306 13.2637L9.30833 10.203ZM13.0916 14H13.9538V18H13.0916V14ZM11.9538 16V11.7333H15.9538V16H11.9538ZM13.9538 9.73333H14.004V13.7333H13.9538V9.73333ZM14.004 9.73333C14.0041 9.73333 14.0028 9.73335 14.0007 9.73379C13.9987 9.73419 13.9973 9.7347 13.9967 9.73498C13.9958 9.73533 13.9983 9.73433 14.0018 9.73088C14.0053 9.72736 14.0055 9.72566 14.0042 9.72871C14.0034 9.73052 14.0023 9.73365 14.0014 9.73799C14.0004 9.74248 14 9.74701 14 9.75093H18C18 11.9393 16.2033 13.7333 14.004 13.7333V9.73333ZM14 9.75093V1.98241H18V9.75093H14ZM14 1.98241C14 1.97929 13.9997 1.97922 14.0002 1.9814C14.0006 1.98347 14.0014 1.98615 14.0026 1.98898C14.005 1.99464 14.0076 1.99768 14.0088 1.99879C14.0098 1.9998 14.0105 2.00022 14.0111 2.00048C14.0116 2.00065 14.0116 2.00062 14.0111 2.00051C14.0106 2.00042 14.0085 2 14.004 2V-2C16.1847 -2 18 -0.25271 18 1.98241H14ZM14.004 2H2.12142V-2H14.004V2ZM2.12142 2C2.11462 2 2.11154 2.00064 2.11137 2.00068C2.11109 2.00074 2.11198 2.00056 2.11351 1.99991C2.1166 1.9986 2.11856 1.99702 2.11948 1.99609C2.12019 1.99538 2.12139 1.99399 2.12263 1.99102C2.12332 1.98939 2.12392 1.98748 2.12433 1.98547C2.12476 1.98337 2.12476 1.98217 2.12476 1.98241H-1.87524C-1.87524 -0.18897 -0.121984 -2 2.12142 -2V2Z" fill="#8E8E8E" mask="url(#path-1-inside-1_872_118)"/>
</svg>
