<svg width="85" height="85" viewBox="0 0 85 85" fill="none" xmlns="http://www.w3.org/2000/svg">
<rect width="85" height="85" fill="white"/>
<path d="M32.6242 47.8043C30.4287 49.9998 28.7745 52.6764 27.7927 55.6219L27.0006 57.9981C27.0004 57.9989 27.0011 57.9996 27.0019 57.9994L29.3781 57.2073C32.3236 56.2254 35.0001 54.5713 37.1956 52.3758L50.1314 39.44L45.56 34.8686L32.6242 47.8043Z" fill="#063F1E"/>
<path d="M56.7143 32.8571C57.9767 31.5948 57.9767 29.5481 56.7143 28.2857C55.4519 27.0233 53.4052 27.0234 52.1429 28.2857L48.5771 31.8514L53.1486 36.4229L56.7143 32.8571Z" fill="#063F1E"/>
<path d="M32.6242 47.8043C30.4287 49.9998 28.7745 52.6764 27.7927 55.6219L27.0006 57.9981C27.0004 57.9989 27.0011 57.9996 27.0019 57.9994L29.3781 57.2073C32.3236 56.2254 35.0001 54.5713 37.1956 52.3758L50.1314 39.44L45.56 34.8686L32.6242 47.8043Z" stroke="#063F1E" stroke-width="2"/>
<path d="M56.7143 32.8571C57.9767 31.5948 57.9767 29.5481 56.7143 28.2857C55.4519 27.0233 53.4052 27.0234 52.1429 28.2857L48.5771 31.8514L53.1486 36.4229L56.7143 32.8571Z" stroke="#063F1E" stroke-width="2"/>
</svg>
