<svg width="27" height="27" viewBox="0 0 27 27" fill="none" xmlns="http://www.w3.org/2000/svg">
<path d="M7.12422 16.3043C4.92872 18.4998 3.27455 21.1764 2.29269 24.1219L2.00063 24.9981C2.00037 24.9989 2.00112 24.9996 2.0019 24.9994L2.87807 24.7073C5.82364 23.7255 8.50015 22.0713 10.6956 19.8758L20.0714 10.5L16.5 6.92857L7.12422 16.3043Z" fill="#302F30"/>
<path d="M25.2143 5.35714C26.2005 4.37092 26.2005 2.77194 25.2143 1.78571C24.2281 0.799491 22.6291 0.79949 21.6429 1.78571L18.8571 4.57143L22.4286 8.14286L25.2143 5.35714Z" fill="#302F30"/>
<path d="M7.12422 16.3043C4.92872 18.4998 3.27455 21.1764 2.29269 24.1219L2.00063 24.9981C2.00037 24.9989 2.00112 24.9996 2.0019 24.9994L2.87807 24.7073C5.82364 23.7255 8.50015 22.0713 10.6956 19.8758L20.0714 10.5L16.5 6.92857L7.12422 16.3043Z" stroke="#302F30" stroke-width="2"/>
<path d="M25.2143 5.35714C26.2005 4.37092 26.2005 2.77194 25.2143 1.78571C24.2281 0.799491 22.6291 0.79949 21.6429 1.78571L18.8571 4.57143L22.4286 8.14286L25.2143 5.35714Z" stroke="#302F30" stroke-width="2"/>
</svg>
