<svg width="28" height="31" viewBox="0 0 28 31" fill="none" xmlns="http://www.w3.org/2000/svg">
<path d="M27.1493 14.368L27.1423 14.4203L27.1428 14.4731L27.1513 15.5025L27.1513 15.5062L27.1765 23.0177C27.1765 23.0181 27.1765 23.0185 27.1765 23.0189C27.1765 23.103 27.17 23.1864 27.1577 23.288L27.1523 23.3328V23.378V29.2268C27.1523 29.7337 26.686 30.25 25.9647 30.25H25.1897H24.8264H18.9896C18.2683 30.25 17.802 29.7337 17.802 29.2268V23.2614V23.2381L17.8006 23.2149C17.8019 23.2368 17.8019 23.1749 17.8018 23.0228C17.8017 22.9799 17.8017 22.9298 17.8017 22.8724L17.8017 22.0282L17.8019 21.186L17.802 20.9087L17.802 20.831L17.802 20.8106L17.802 20.8053V20.804V20.8037V20.8035L17.8022 20.0533H17.052H10.8517H10.1017V20.8033V23.2614V29.2268C10.1017 29.7337 9.63543 30.25 8.91416 30.25H6.20639H5.81403H1.939C1.21809 30.25 0.751419 29.7335 0.751419 29.2268L0.751292 18.0833L0.751291 14.4667C0.751291 14.2794 0.806405 14.1232 0.993261 13.9518L1.01189 13.9347L1.02932 13.9164L13.4283 0.895259C13.5555 0.785646 13.7063 0.75 13.9712 0.75C14.1764 0.75 14.3699 0.801278 14.5008 0.882831L26.8148 13.9143L26.8501 13.9516L26.8901 13.9838C27.0273 14.094 27.0941 14.1832 27.1245 14.2424C27.1503 14.2925 27.1546 14.3282 27.1493 14.368Z" fill="#0C783A" stroke="#0C783A" stroke-width="1.5"/>
</svg>
