<svg width="28" height="31" viewBox="0 0 28 31" fill="none" xmlns="http://www.w3.org/2000/svg">
<path d="M26.9028 14.3514L26.8957 14.4048L26.8963 14.4752L26.9048 15.5034L26.9048 15.5083L26.93 23.0177C26.93 23.0182 26.93 23.0186 26.93 23.0191C26.9299 23.0898 26.9246 23.1625 26.913 23.2579L26.9058 23.3178V23.378V29.2268C26.9058 29.5748 26.5731 30 25.968 30H25.1928H24.8295H18.9919C18.3868 30 18.0541 29.5748 18.0541 29.2268V23.2614V23.2304L18.0522 23.1994C18.0541 23.2295 18.054 23.1775 18.0539 23.0227C18.0539 22.9804 18.0538 22.9304 18.0538 22.8724L18.0538 22.0282L18.054 21.186L18.0541 20.9088L18.0541 20.8311L18.0541 20.8106L18.0541 20.8054V20.8041V20.8037V20.8036L18.0544 19.8033H17.0541H10.8531H9.85309V20.8033V23.2614V29.2268C9.85309 29.5748 9.52037 30 8.91527 30H6.20716H5.81475H1.93924C1.33445 30 1.00142 29.5746 1.00142 29.2268L1.00129 18.0833L1.00129 14.4667C1.00129 14.3505 1.02626 14.2608 1.16231 14.136L1.18714 14.1132L1.21038 14.0888L13.6013 1.07778C13.6347 1.05077 13.6667 1.03613 13.7062 1.02524C13.763 1.00956 13.8425 1 13.973 1C14.058 1 14.1469 1.01154 14.2267 1.03425C14.2759 1.04825 14.3153 1.06463 14.3458 1.08083L26.6365 14.086L26.6836 14.1358L26.7369 14.1787C26.8462 14.2665 26.8889 14.3272 26.9028 14.3514Z" stroke="#706E70" stroke-width="2"/>
</svg>
