<svg width="15" height="19" viewBox="0 0 15 19" fill="none" xmlns="http://www.w3.org/2000/svg">
<path d="M6.54291 18.5731C4.51356 16.1845 0 10.3953 0 7.14349C0 3.1982 3.34182 0 7.46428 0C11.5852 0 14.9286 3.1982 14.9286 7.14349C14.9286 10.3953 10.38 16.1845 8.38566 18.5731C7.90748 19.1423 7.02109 19.1423 6.54291 18.5731ZM7.46428 9.52465C8.83663 9.52465 9.95238 8.45685 9.95238 7.14349C9.95238 5.83013 8.83663 4.76232 7.46428 4.76232C6.09195 4.76232 4.97619 5.83013 4.97619 7.14349C4.97619 8.45685 6.09195 9.52465 7.46428 9.52465Z" fill="#706E70"/>
</svg>
