<svg width="28" height="29" viewBox="0 0 28 29" fill="none" xmlns="http://www.w3.org/2000/svg">
<path d="M26.5432 20.0444L26.5463 20.0479L26.9708 20.5154C26.9714 20.5161 26.9719 20.5167 26.9725 20.5174C27.2624 20.843 27.3286 21.2913 27.1545 21.6722C26.9777 22.0588 26.5874 22.3107 26.1468 22.3107H1.85174C1.40996 22.3107 1.01971 22.0579 0.845452 21.6741C0.671425 21.2907 0.73787 20.8416 1.0254 20.517L1.45167 20.0485L1.45168 20.0485L1.45506 20.0448C2.38268 19.0114 3.15517 18.011 3.67909 16.6341C4.19954 15.2663 4.45349 13.5847 4.45349 11.2064V9.10088C4.45349 7.13034 5.38124 5.28038 6.85332 3.80202C8.31918 2.3299 10.2841 1.27086 12.2631 0.871422L12.2794 0.86961C12.3103 0.866211 12.3556 0.861306 12.4125 0.855396C12.5264 0.843562 12.6857 0.827772 12.8669 0.812C13.2353 0.779923 13.6716 0.749982 14 0.75C14.3281 0.750018 14.764 0.77996 15.1322 0.812027C15.3132 0.827794 15.4724 0.843577 15.5862 0.855405C15.643 0.861312 15.6883 0.866214 15.7192 0.869611L15.7345 0.871321C17.6877 1.27064 19.6535 2.32964 21.1268 3.80311C22.6068 5.28333 23.5451 7.13318 23.5451 9.10088V11.2064C23.5451 13.8325 23.7969 15.5252 24.3253 16.8413C24.8557 18.1621 25.6436 19.041 26.5362 20.0367L26.5432 20.0444L26.5432 20.0444ZM13.9993 27.69C13.2081 27.69 12.4558 27.3847 11.9052 26.8403C11.5111 26.4506 11.1988 25.8786 11.0552 25.2494H16.9445C16.8005 25.8783 16.4877 26.4504 16.0933 26.8403C15.5465 27.3809 14.7439 27.69 13.9993 27.69Z" fill="#0C783A" stroke="#0C783A" stroke-width="1.5"/>
</svg>
