<svg width="28" height="29" viewBox="0 0 28 29" fill="none" xmlns="http://www.w3.org/2000/svg">
<path d="M26.357 20.212L26.3612 20.2166L26.7844 20.6827C26.7851 20.6835 26.7858 20.6843 26.7865 20.6851C27.0111 20.938 27.0591 21.2803 26.9271 21.5689C26.7917 21.8651 26.4912 22.0615 26.1468 22.0615H1.85174C1.50576 22.0615 1.20588 21.864 1.0731 21.5715L0.174286 21.9795L1.0731 21.5715C0.940568 21.2795 0.989448 20.9362 1.21149 20.6847L1.63659 20.2174L1.63661 20.2174L1.64111 20.2124C2.57665 19.1702 3.37275 18.1428 3.91275 16.7235C4.44812 15.3165 4.70349 13.6013 4.70349 11.2068V9.10118C4.70349 7.21177 5.5932 5.42198 7.03048 3.97852C8.45951 2.54334 10.3758 1.50982 12.3018 1.11866L12.3067 1.11811C12.3372 1.11476 12.382 1.10991 12.4384 1.10406C12.5512 1.09234 12.7091 1.07669 12.8885 1.06106C13.2557 1.0291 13.6829 0.999983 13.9999 1C14.3167 1.00002 14.7436 1.02913 15.1105 1.06109C15.2898 1.07671 15.4476 1.09235 15.5603 1.10407C15.6166 1.10992 15.6614 1.11477 15.6918 1.11811L15.6955 1.11853C17.5959 1.50954 19.5133 2.543 20.95 3.97997C22.3957 5.42592 23.2951 7.21556 23.2951 9.10118V11.2068C23.2951 13.8453 23.5474 15.5753 24.0933 16.935C24.6401 18.2968 25.4535 19.2041 26.3399 20.1929L26.357 20.212L26.357 20.212ZM13.9993 27.441C13.2723 27.441 12.5836 27.1605 12.081 26.6635C11.7857 26.3715 11.5374 25.9616 11.3843 25.5002H16.6152C16.4618 25.9613 16.2131 26.3712 15.9176 26.6635C15.42 27.1555 14.6815 27.441 13.9993 27.441Z" stroke="#706E70" stroke-width="2"/>
</svg>
