<svg width="85" height="85" viewBox="0 0 85 85" fill="none" xmlns="http://www.w3.org/2000/svg">
<rect width="85" height="85" fill="white"/>
<mask id="path-2-inside-1_1473_12" fill="white">
<path d="M45.1154 26.1459C49.9432 27.1006 54.7658 31.2574 54.7658 36.2401V38.6092C54.7658 44.4358 55.9099 45.7242 57.9733 47.9902L58.4627 48.5209C59.0182 49.1325 59.1571 49.9956 58.8132 50.736C58.4693 51.4763 57.7153 51.9473 56.8821 51.9473H29.1163C28.283 51.9473 27.5271 51.4763 27.1858 50.736C26.8444 49.9956 26.9809 49.1325 27.5346 48.5209L28.0251 47.9902C30.0911 45.7242 31.2326 43.8524 31.2326 38.6092V37.4246V36.2401C31.2326 31.2574 35.9956 27.1006 40.8829 26.1459C40.8829 26.1459 42.1712 26 43 26C43.8282 26 45.1154 26.1459 45.1154 26.1459ZM42.9992 58C41.8749 58 40.7969 57.5727 40.0033 56.8002C39.2097 56.0277 38.679 54.8057 38.679 53.5661H47.321C47.321 54.8057 46.7886 56.0277 45.995 56.8002C45.2014 57.5727 44.0639 58 42.9992 58Z"/>
</mask>
<path d="M45.1154 26.1459C49.9432 27.1006 54.7658 31.2574 54.7658 36.2401V38.6092C54.7658 44.4358 55.9099 45.7242 57.9733 47.9902L58.4627 48.5209C59.0182 49.1325 59.1571 49.9956 58.8132 50.736C58.4693 51.4763 57.7153 51.9473 56.8821 51.9473H29.1163C28.283 51.9473 27.5271 51.4763 27.1858 50.736C26.8444 49.9956 26.9809 49.1325 27.5346 48.5209L28.0251 47.9902C30.0911 45.7242 31.2326 43.8524 31.2326 38.6092V37.4246V36.2401C31.2326 31.2574 35.9956 27.1006 40.8829 26.1459C40.8829 26.1459 42.1712 26 43 26C43.8282 26 45.1154 26.1459 45.1154 26.1459ZM42.9992 58C41.8749 58 40.7969 57.5727 40.0033 56.8002C39.2097 56.0277 38.679 54.8057 38.679 53.5661H47.321C47.321 54.8057 46.7886 56.0277 45.995 56.8002C45.2014 57.5727 44.0639 58 42.9992 58Z" fill="#063F1E"/>
<path d="M52.7658 36.2401V38.0258H56.7658V36.2401H52.7658ZM52.7658 38.0258C52.7658 41.0489 53.0591 43.2395 53.7186 45.0334C54.3934 46.8687 55.3946 48.1288 56.4945 49.3367L59.4521 46.6437C58.4886 45.5856 57.8861 44.7768 57.4729 43.6531C57.0445 42.4879 56.7658 40.8293 56.7658 38.0258H52.7658ZM45.1154 26.1459L45.8914 22.2219L45.7297 22.1899L45.5658 22.1714L45.1154 26.1459ZM57.9733 47.9902L55.0157 50.6833L55.0242 50.6926L55.0327 50.7019L57.9733 47.9902ZM58.4627 48.5209L61.4235 45.8314L61.4134 45.8203L61.4032 45.8092L58.4627 48.5209ZM27.5346 48.5209L24.597 45.8061L24.5831 45.8211L24.5693 45.8363L27.5346 48.5209ZM28.0251 47.9902L30.9627 50.705L30.9718 50.6951L30.9809 50.6852L28.0251 47.9902ZM40.8829 26.1459L40.4326 22.1713L40.2733 22.1894L40.116 22.2201L40.8829 26.1459ZM43 26L43.0002 22L43 26ZM38.679 53.5661V49.5661H34.679V53.5661H38.679ZM47.321 53.5661H51.321V49.5661H47.321V53.5661ZM44.3395 30.0699C45.9723 30.3928 47.6826 31.2901 48.9445 32.5327C50.2026 33.7714 50.7658 35.0857 50.7658 36.2401H58.7658C58.7658 32.4118 56.9177 29.1563 54.5575 26.8323C52.2012 24.5121 49.0864 22.8537 45.8914 22.2219L44.3395 30.0699ZM50.7658 36.2401V38.6092H58.7658V36.2401H50.7658ZM50.7658 38.6092C50.7658 41.7233 51.0605 44.1069 51.892 46.1456C52.74 48.2247 54.0251 49.5954 55.0157 50.6833L60.9309 45.2971C59.8581 44.119 59.5395 43.7125 59.2995 43.1243C59.0431 42.4956 58.7658 41.3217 58.7658 38.6092H50.7658ZM55.0327 50.7019L55.5221 51.2326L61.4032 45.8092L60.9138 45.2785L55.0327 50.7019ZM55.5018 51.2104C55.0029 50.6611 54.8342 49.807 55.1855 49.0508L62.4409 52.4211C63.4799 50.1843 63.0335 47.6038 61.4235 45.8314L55.5018 51.2104ZM55.1855 49.0508C55.5192 48.3325 56.2111 47.9473 56.8821 47.9473V55.9473C59.2196 55.9473 61.4194 54.6201 62.4409 52.4211L55.1855 49.0508ZM56.8821 47.9473H29.1163V55.9473H56.8821V47.9473ZM29.1163 47.9473C29.7809 47.9473 30.4801 48.3279 30.8182 49.061L23.5533 52.411C24.5742 54.6247 26.7851 55.9473 29.1163 55.9473V47.9473ZM30.8182 49.061C31.1601 49.8026 31.0024 50.6505 30.4999 51.2055L24.5693 45.8363C22.9594 47.6145 22.5286 50.1887 23.5533 52.411L30.8182 49.061ZM30.4722 51.2357L30.9627 50.705L25.0874 45.2754L24.597 45.8061L30.4722 51.2357ZM30.9809 50.6852C32.1405 49.4134 33.3277 47.9461 34.1346 45.8581C34.9236 43.8167 35.2326 41.4933 35.2326 38.6092H27.2326C27.2326 40.9683 26.9708 42.2024 26.6725 42.9742C26.3922 43.6994 25.9757 44.301 25.0692 45.2952L30.9809 50.6852ZM35.2326 36.2401C35.2326 35.0704 35.7947 33.7556 37.0373 32.5269C38.2851 31.2932 39.9886 30.3962 41.6498 30.0717L40.116 22.2201C36.8899 22.8503 33.7682 24.5091 31.4126 26.8381C29.052 29.1721 27.2326 32.4271 27.2326 36.2401H35.2326ZM40.8829 26.1459C41.3332 30.1205 41.333 30.1205 41.3329 30.1205C41.3329 30.1205 41.3328 30.1205 41.3327 30.1205C41.3325 30.1206 41.3324 30.1206 41.3323 30.1206C41.3321 30.1206 41.3319 30.1206 41.3319 30.1206C41.3317 30.1207 41.3319 30.1206 41.3323 30.1206C41.3332 30.1205 41.3353 30.1202 41.3385 30.1199C41.3449 30.1192 41.3557 30.118 41.3706 30.1164C41.4004 30.1132 41.446 30.1083 41.5043 30.1023C41.6215 30.0903 41.786 30.0743 41.9722 30.0583C42.3769 30.0236 42.765 30 42.9998 30L43.0002 22C42.4062 22 41.7358 22.0493 41.2891 22.0876C41.0496 22.1081 40.8403 22.1285 40.69 22.1439C40.6145 22.1516 40.553 22.1581 40.5091 22.1629C40.4871 22.1653 40.4695 22.1672 40.4566 22.1687C40.4501 22.1694 40.4449 22.17 40.4409 22.1704C40.4389 22.1706 40.4372 22.1708 40.4358 22.171C40.4351 22.1711 40.4345 22.1711 40.4339 22.1712C40.4337 22.1712 40.4334 22.1712 40.4332 22.1713C40.4331 22.1713 40.4329 22.1713 40.4329 22.1713C40.4327 22.1713 40.4326 22.1713 40.8829 26.1459ZM42.9998 30C43.2344 30 43.6222 30.0237 44.0265 30.0583C44.2126 30.0743 44.377 30.0904 44.4941 30.1023C44.5523 30.1083 44.5979 30.1132 44.6277 30.1164C44.6425 30.118 44.6534 30.1192 44.6597 30.1199C44.6629 30.1202 44.665 30.1205 44.6659 30.1206C44.6664 30.1206 44.6665 30.1206 44.6664 30.1206C44.6663 30.1206 44.6662 30.1206 44.666 30.1206C44.6658 30.1206 44.6657 30.1206 44.6656 30.1205C44.6655 30.1205 44.6654 30.1205 44.6653 30.1205C44.6652 30.1205 44.6651 30.1205 45.1154 26.1459C45.5658 22.1714 45.5657 22.1713 45.5655 22.1713C45.5655 22.1713 45.5653 22.1713 45.5652 22.1713C45.565 22.1713 45.5647 22.1712 45.5645 22.1712C45.5639 22.1711 45.5633 22.1711 45.5626 22.171C45.5613 22.1708 45.5596 22.1706 45.5575 22.1704C45.5535 22.17 45.5483 22.1694 45.5418 22.1687C45.529 22.1672 45.5113 22.1653 45.4894 22.1629C45.4455 22.1582 45.3841 22.1516 45.3086 22.1439C45.1585 22.1285 44.9493 22.1081 44.71 22.0876C44.2637 22.0493 43.5937 22 43.0002 22L42.9998 30ZM42.9992 54C42.8825 54 42.8157 53.9557 42.7934 53.9339L37.2132 59.6664C38.7781 61.1897 40.8673 62 42.9992 62V54ZM42.7934 53.9339C42.8114 53.9514 42.8078 53.9515 42.792 53.9278C42.7766 53.9047 42.7561 53.8686 42.7364 53.821C42.6936 53.7184 42.679 53.6239 42.679 53.5661H34.679C34.679 55.8563 35.6256 58.121 37.2132 59.6664L42.7934 53.9339ZM38.679 57.5661H47.321V49.5661H38.679V57.5661ZM43.321 53.5661C43.321 53.6221 43.3067 53.7158 43.2638 53.8187C43.2439 53.8663 43.2233 53.9028 43.2076 53.9264C43.1915 53.9505 43.1875 53.9509 43.205 53.9339L48.7851 59.6664C50.3702 58.1235 51.321 55.86 51.321 53.5661H43.321ZM43.205 53.9339C43.2161 53.923 43.2166 53.9248 43.2023 53.9339C43.1879 53.943 43.1647 53.9556 43.1336 53.9678C43.1025 53.98 43.0711 53.9889 43.0432 53.9943C43.0297 53.997 43.0188 53.9984 43.0107 53.9992C43.0026 54 42.9987 54 42.9992 54V62C45.0423 62 47.2002 61.2092 48.7851 59.6664L43.205 53.9339ZM35.2326 38.6092V37.4246H27.2326V38.6092H35.2326ZM35.2326 37.4246V36.2401H27.2326V37.4246H35.2326Z" fill="#063F1E" mask="url(#path-2-inside-1_1473_12)"/>
</svg>
