<svg width="32" height="33" viewBox="0 0 32 33" fill="none" xmlns="http://www.w3.org/2000/svg">
<path d="M23.3772 21.9394L22.3166 20.8787L20.1953 23L21.2559 24.0607L23.3772 21.9394ZM28.9393 31.7441C29.5251 32.3299 30.4749 32.3299 31.0607 31.7441C31.6464 31.1583 31.6464 30.2086 31.0607 29.6228L28.9393 31.7441ZM23.8334 13.6667C23.8334 19.2816 19.2816 23.8334 13.6667 23.8334V26.8334C20.9384 26.8334 26.8334 20.9384 26.8334 13.6667H23.8334ZM13.6667 23.8334C8.05178 23.8334 3.5 19.2816 3.5 13.6667H0.5C0.5 20.9384 6.39492 26.8334 13.6667 26.8334V23.8334ZM3.5 13.6667C3.5 8.05178 8.05178 3.5 13.6667 3.5V0.5C6.39492 0.5 0.5 6.39492 0.5 13.6667H3.5ZM13.6667 3.5C19.2816 3.5 23.8334 8.05178 23.8334 13.6667H26.8334C26.8334 6.39492 20.9384 0.5 13.6667 0.5V3.5ZM21.2559 24.0607L28.9393 31.7441L31.0607 29.6228L23.3772 21.9394L21.2559 24.0607Z" fill="#0C783A"/>
</svg>
