<svg width="30" height="31" viewBox="0 0 30 31" fill="none" xmlns="http://www.w3.org/2000/svg">
<path d="M22.0237 21.2929L21.3166 20.5858L19.9024 22L20.6095 22.7071L22.0237 21.2929ZM28.2929 30.3906C28.6834 30.7811 29.3166 30.7811 29.7071 30.3906C30.0976 30 30.0976 29.3669 29.7071 28.9763L28.2929 30.3906ZM23.3334 12.6667C23.3334 18.5577 18.5577 23.3334 12.6667 23.3334V25.3334C19.6623 25.3334 25.3334 19.6623 25.3334 12.6667H23.3334ZM12.6667 23.3334C6.77564 23.3334 2 18.5577 2 12.6667H0C0 19.6623 5.67107 25.3334 12.6667 25.3334V23.3334ZM2 12.6667C2 6.77563 6.77564 2 12.6667 2V0C5.67107 0 0 5.67106 0 12.6667H2ZM12.6667 2C18.5577 2 23.3334 6.77563 23.3334 12.6667H25.3334C25.3334 5.67106 19.6623 0 12.6667 0V2ZM20.6095 22.7071L28.2929 30.3906L29.7071 28.9763L22.0237 21.2929L20.6095 22.7071Z" fill="#706E70"/>
</svg>
