<svg width="85" height="85" viewBox="0 0 85 85" fill="none" xmlns="http://www.w3.org/2000/svg">
<rect width="85" height="85" fill="white"/>
<path d="M50.7136 47.0685L49.2825 45.6714L46.4884 48.5338L47.9195 49.9308L50.7136 47.0685ZM55.6029 57.4312C56.3933 58.2027 57.6596 58.1875 58.4312 57.3971C59.2027 56.6067 59.1875 55.3404 58.3971 54.5688L55.6029 57.4312ZM50.3334 39.3887C50.3334 44.5287 46.0512 48.7774 40.6667 48.7774V52.7774C48.1688 52.7774 54.3334 46.8283 54.3334 39.3887H50.3334ZM40.6667 48.7774C35.2822 48.7774 31 44.5287 31 39.3887H27C27 46.8283 33.1645 52.7774 40.6667 52.7774V48.7774ZM31 39.3887C31 34.2487 35.2822 30 40.6667 30V26C33.1645 26 27 31.9491 27 39.3887H31ZM40.6667 30C46.0512 30 50.3334 34.2487 50.3334 39.3887H54.3334C54.3334 31.9491 48.1688 26 40.6667 26V30ZM47.9195 49.9308L55.6029 57.4312L58.3971 54.5688L50.7136 47.0685L47.9195 49.9308Z" fill="#063F1E"/>
</svg>
