<svg width="31" height="31" viewBox="0 0 31 31" fill="none" xmlns="http://www.w3.org/2000/svg">
<path d="M1 15.5C1 7.49096 7.49096 1 15.5 1C23.509 1 30 7.49096 30 15.5C30 23.509 23.509 30 15.5 30C7.49096 30 1 23.509 1 15.5Z" fill="white" stroke="#0C783A" stroke-width="2"/>
<path d="M15.5 31C11.9182 31 8.35492 29.7172 6 27.0714C7.09625 23.889 10.6092 20 13.8235 20H17.1765C20.3935 20 23.9065 23.8875 25 27.0714C22.6451 29.7195 19.0797 31 15.5 31Z" fill="#0C783A"/>
<path d="M15.5 7C18.538 7 21 9.46278 21 12.5C21 15.5372 18.5403 18 15.5 18C12.4628 18 10 15.5372 10 12.5C10 9.46278 12.4597 7 15.5 7Z" fill="#0C783A"/>
</svg>
