<svg width="31" height="31" viewBox="0 0 31 31" fill="none" xmlns="http://www.w3.org/2000/svg">
<path d="M1 15.5C1 7.49096 7.49096 1 15.5 1C23.509 1 30 7.49096 30 15.5C30 23.509 23.509 30 15.5 30C7.49096 30 1 23.509 1 15.5Z" stroke="#706E70" stroke-width="2"/>
<path d="M17.1577 21H17.1765C18.4062 21 19.8504 21.7662 21.1895 23.0607C22.3397 24.1726 23.2911 25.5603 23.84 26.8422C21.7172 28.9433 18.6489 30 15.5 30C12.3501 30 9.28346 28.9418 7.16052 26.8424C7.71051 25.5608 8.6625 24.1732 9.81257 23.0612C11.152 21.7663 12.5954 21 13.8235 21H13.8423H13.8609H13.8794H13.8977H13.9159H13.934H13.9519H13.9696H13.9873H14.0048H14.0221H14.0393H14.0564H14.0733H14.0902H14.1068H14.1234H14.1398H14.156H14.1722H14.1882H14.204H14.2198H14.2354H14.2508H14.2662H14.2814H14.2965H14.3114H14.3263H14.341H14.3555H14.37H14.3843H14.3985H14.4126H14.4265H14.4404H14.4541H14.4677H14.4811H14.4945H14.5077H14.5208H14.5338H14.5466H14.5594H14.572H14.5845H14.5969H14.6092H14.6214H14.6334H14.6453H14.6572H14.6689H14.6805H14.6919H14.7033H14.7146H14.7257H14.7368H14.7477H14.7585H14.7692H14.7798H14.7903H14.8007H14.811H14.8212H14.8313H14.8413H14.8511H14.8609H14.8706H14.8801H14.8896H14.8989H14.9082H14.9174H14.9264H14.9354H14.9443H14.953H14.9617H14.9703H14.9788H14.9871H14.9954H15.0036H15.0117H15.0198H15.0277H15.0355H15.0432H15.0509H15.0584H15.0659H15.0733H15.0806H15.0878H15.0949H15.1019H15.1088H15.1157H15.1225H15.1292H15.1358H15.1423H15.1487H15.1551H15.1613H15.1675H15.1736H15.1797H15.1856H15.1915H15.1973H15.203H15.2087H15.2142H15.2197H15.2251H15.2305H15.2357H15.2409H15.246H15.2511H15.256H15.2609H15.2658H15.2705H15.2752H15.2798H15.2844H15.2889H15.2933H15.2977H15.3019H15.3062H15.3103H15.3144H15.3184H15.3224H15.3263H15.3301H15.3339H15.3376H15.3412H15.3448H15.3484H15.3518H15.3552H15.3586H15.3619H15.3651H15.3683H15.3715H15.3745H15.3775H15.3805H15.3834H15.3863H15.3891H15.3918H15.3945H15.3972H15.3998H15.4024H15.4049H15.4073H15.4097H15.4121H15.4144H15.4167H15.4189H15.4211H15.4232H15.4253H15.4273H15.4293H15.4313H15.4332H15.4351H15.4369H15.4387H15.4405H15.4422H15.4439H15.4455H15.4472H15.4487H15.4503H15.4518H15.4532H15.4547H15.4561H15.4574H15.4587H15.46H15.4613H15.4625H15.4638H15.4649H15.4661H15.4672H15.4683H15.4693H15.4704H15.4714H15.4724H15.4733H15.4743H15.4752H15.4761H15.4769H15.4778H15.4786H15.4794H15.4802H15.4809H15.4816H15.4824H15.4831H15.4837H15.4844H15.485H15.4857H15.4863H15.4869H15.4875H15.488H15.4886H15.4891H15.4897H15.4902H15.4907H15.4912H15.4917H15.4922H15.4926H15.4931H15.4936H15.494H15.4944H15.4949H15.4953H15.4957H15.4961H15.4966H15.497H15.4974H15.4978H15.4982H15.4986H15.499H15.4994H15.4998H15.5002H15.5006H15.501H15.5014H15.5018H15.5023H15.5027H15.5031H15.5035H15.504H15.5044H15.5049H15.5053H15.5058H15.5063H15.5068H15.5073H15.5078H15.5083H15.5088H15.5094H15.5099H15.5105H15.5111H15.5117H15.5123H15.5129H15.5136H15.5143H15.5149H15.5156H15.5164H15.5171H15.5179H15.5186H15.5194H15.5203H15.5211H15.522H15.5229H15.5238H15.5247H15.5257H15.5266H15.5277H15.5287H15.5298H15.5309H15.532H15.5331H15.5343H15.5355H15.5368H15.538H15.5393H15.5407H15.542H15.5434H15.5449H15.5463H15.5478H15.5494H15.5509H15.5526H15.5542H15.5559H15.5576H15.5594H15.5612H15.563H15.5649H15.5668H15.5688H15.5708H15.5729H15.575H15.5771H15.5793H15.5815H15.5838H15.5861H15.5885H15.5909H15.5933H15.5958H15.5984H15.601H15.6037H15.6064H15.6091H15.612H15.6148H15.6177H15.6207H15.6237H15.6268H15.63H15.6331H15.6364H15.6397H15.6431H15.6465H15.65H15.6535H15.6571H15.6607H15.6645H15.6682H15.6721H15.676H15.68H15.684H15.6881H15.6922H15.6965H15.7008H15.7051H15.7095H15.714H15.7186H15.7232H15.7279H15.7327H15.7375H15.7424H15.7474H15.7525H15.7576H15.7628H15.768H15.7734H15.7788H15.7843H15.7899H15.7955H15.8013H15.8071H15.8129H15.8189H15.8249H15.8311H15.8373H15.8435H15.8499H15.8564H15.8629H15.8695H15.8762H15.883H15.8898H15.8968H15.9038H15.9109H15.9182H15.9255H15.9328H15.9403H15.9479H15.9555H15.9633H15.9711H15.9791H15.9871H15.9952H16.0034H16.0117H16.0201H16.0286H16.0372H16.0459H16.0546H16.0635H16.0725H16.0816H16.0907H16.1H16.1094H16.1189H16.1284H16.1381H16.1479H16.1578H16.1677H16.1778H16.188H16.1983H16.2087H16.2193H16.2299H16.2406H16.2514H16.2624H16.2734H16.2846H16.2959H16.3072H16.3187H16.3303H16.3421H16.3539H16.3658H16.3779H16.3901H16.4024H16.4148H16.4273H16.4399H16.4527H16.4656H16.4786H16.4917H16.5049H16.5183H16.5317H16.5453H16.5591H16.5729H16.5869H16.601H16.6152H16.6295H16.644H16.6586H16.6733H16.6881H16.7031H16.7182H16.7334H16.7488H16.7643H16.7799H16.7956H16.8115H16.8275H16.8437H16.86H16.8764H16.8929H16.9096H16.9264H16.9434H16.9605H16.9777H16.9951H17.0126H17.0302H17.048H17.0659H17.084H17.1022H17.1206H17.1391H17.1577Z" stroke="#706E70" stroke-width="2"/>
<path d="M15.5 8C17.9856 8 20 10.015 20 12.5C20 14.9853 17.9876 17 15.5 17C13.0151 17 11 14.9849 11 12.5C11 10.0147 13.0124 8 15.5 8Z" stroke="#706E70" stroke-width="2"/>
</svg>
