<svg width="31" height="31" viewBox="0 0 31 31" fill="none" xmlns="http://www.w3.org/2000/svg">
<path d="M15.5 0C6.93867 0 0 6.93867 0 15.5C0 24.0613 6.93867 31 15.5 31C24.0613 31 31 24.0613 31 15.5C31 6.93867 24.0613 0 15.5 0ZM15.5 7.75C17.9079 7.75 19.8594 9.70203 19.8594 12.1094C19.8594 14.5167 17.9098 16.4688 15.5 16.4688C13.0927 16.4688 11.1406 14.5167 11.1406 12.1094C11.1406 9.70203 13.0902 7.75 15.5 7.75ZM15.5 27.125C12.2953 27.125 9.39082 25.8214 7.28379 23.7168C8.26465 21.1854 10.6865 19.375 13.5625 19.375H17.4375C20.3159 19.375 22.7378 21.1841 23.7162 23.7168C21.6092 25.8232 18.7029 27.125 15.5 27.125Z" fill="#706E70"/>
</svg>
